 <!DOCTYPE svg PUBLIC "-//W3C//DTD SVG 1.1//EN" "http://www.w3.org/Graphics/SVG/1.1/DTD/svg11.dtd">
<svg xmlns="http://www.w3.org/2000/svg" id="a" viewBox="0 0 865.76 682.89">
  <defs>
<style xmlns="http://www.w3.org/1999/xhtml">*, ::after, ::before { box-sizing: border-box; }
img, svg { vertical-align: middle; }
</style>
<style xmlns="http://www.w3.org/1999/xhtml">*, body, html { -webkit-font-smoothing: antialiased; }
img, svg { max-width: 100%; }
</style>
</defs>
<g>
    <g id="b">
      <rect x="9.32" y="580.54" width="847.12" height=".42" fill="#ebebeb"/>
      <rect x="715.45" y="607.8" width="56.11" height=".42" fill="#ebebeb"/>
      <rect x="555.76" y="612.4" width="14.72" height=".42" fill="#ebebeb"/>
      <rect x="681.24" y="592.07" width="32.51" height=".42" fill="#ebebeb"/>
      <rect x="98.2" y="594.92" width="73.17" height=".42" fill="#ebebeb"/>
      <rect x="186.47" y="594.92" width="10.72" height=".42" fill="#ebebeb"/>
      <rect x="232.06" y="602.07" width="158.72" height=".42" fill="#ebebeb"/>
      <path d="M410.85,504.97H83.71c-5.34,0-9.66-4.34-9.66-9.67V35.43c.05-5.3,4.35-9.58,9.66-9.59H410.85c5.34,0,9.67,4.33,9.67,9.67h0V495.3c0,5.34-4.33,9.67-9.67,9.67ZM83.71,26.18c-5.1,0-9.23,4.15-9.23,9.25V495.3c0,5.1,4.13,9.24,9.23,9.25H410.85c5.11,0,9.24-4.15,9.25-9.25V35.43c0-5.11-4.15-9.24-9.25-9.25H83.71Z" fill="#ebebeb"/>
      <path d="M777.34,504.97H450.18c-5.34,0-9.66-4.34-9.67-9.67V35.43c.06-5.31,4.37-9.58,9.67-9.59h327.16c5.3,.02,9.59,4.29,9.64,9.59V495.3c0,5.33-4.31,9.66-9.64,9.67ZM450.18,26.18c-5.11,0-9.24,4.15-9.25,9.25V495.3c0,5.11,4.15,9.24,9.25,9.25h327.16c5.11,0,9.24-4.15,9.25-9.25V35.43c0-5.11-4.15-9.24-9.25-9.25H450.18Z" fill="#ebebeb"/>
      <polygon points="752.33 372.64 752.33 354.74 744.25 354.74 744.25 288.96 739.4 288.96 739.4 287.81 731.32 287.81 731.32 222.02 725.54 222.02 725.54 231.71 630.82 231.71 630.82 202.28 614.66 202.28 614.66 97.83 608.32 97.83 608.32 202.28 585.8 202.28 585.8 231.71 575.42 231.71 575.42 370.21 526.94 370.21 526.94 328.65 544.26 328.65 544.26 320.57 526.94 320.57 526.94 310.19 480.78 310.19 480.78 204.01 469.24 204.01 469.24 187.86 414.99 187.86 414.99 204.01 406.92 204.01 406.92 350.59 381.53 350.59 381.53 418.69 368.52 418.69 368.52 364.44 357.55 364.44 357.55 350.59 332.17 350.59 332.17 303.27 318.26 303.27 318.26 269.8 301.17 269.8 301.17 221.04 295.07 221.04 295.07 269.8 277.98 269.8 277.98 303.27 264.08 303.27 264.08 350.59 238.69 350.59 238.69 364.44 227.72 364.44 227.72 418.69 211.07 418.69 211.07 276.15 204.95 276.15 204.95 324.62 183.01 324.62 183.01 418.69 174.93 418.69 174.93 239.79 166.87 239.79 166.87 174 161.09 174 161.09 197.28 119.43 216.72 119.43 239.79 99.93 239.79 99.93 418.69 97.08 418.69 97.08 578.11 768.68 578.11 768.68 372.64 752.33 372.64" fill="#e6e6e6"/>
      <rect x="666.16" y="238.18" width="6.54" height="6.54" fill="#f0f0f0"/>
      <rect x="666.16" y="249.14" width="6.54" height="6.54" fill="#f0f0f0"/>
      <rect x="666.16" y="293.01" width="6.54" height="6.54" fill="#f0f0f0"/>
      <rect x="666.16" y="303.97" width="6.54" height="6.54" fill="#f0f0f0"/>
      <rect x="666.16" y="314.93" width="6.54" height="6.54" fill="#f0f0f0"/>
      <rect x="666.16" y="347.83" width="6.54" height="6.54" fill="#f0f0f0"/>
      <rect x="666.16" y="358.79" width="6.54" height="6.54" fill="#f0f0f0"/>
      <rect x="655.76" y="282.04" width="6.54" height="6.54" fill="#f0f0f0"/>
      <rect x="655.76" y="293.01" width="6.54" height="6.54" fill="#f0f0f0"/>
      <rect x="655.76" y="303.97" width="6.54" height="6.54" fill="#f0f0f0"/>
      <rect x="655.76" y="314.93" width="6.54" height="6.54" fill="#f0f0f0"/>
      <rect x="655.76" y="325.89" width="6.54" height="6.54" fill="#f0f0f0"/>
      <rect x="655.76" y="347.83" width="6.54" height="6.54" fill="#f0f0f0"/>
      <rect x="655.76" y="358.79" width="6.54" height="6.54" fill="#f0f0f0"/>
      <rect x="645.37" y="238.18" width="6.54" height="6.54" fill="#f0f0f0"/>
      <rect x="645.37" y="249.14" width="6.54" height="6.54" fill="#f0f0f0"/>
      <rect x="645.37" y="260.1" width="6.54" height="6.54" fill="#f0f0f0"/>
      <rect x="645.37" y="271.08" width="6.54" height="6.54" fill="#f0f0f0"/>
      <rect x="645.37" y="282.04" width="6.54" height="6.54" fill="#f0f0f0"/>
      <rect x="645.37" y="293.01" width="6.54" height="6.54" fill="#f0f0f0"/>
      <rect x="645.37" y="303.97" width="6.54" height="6.54" fill="#f0f0f0"/>
      <rect x="645.37" y="314.93" width="6.54" height="6.54" fill="#f0f0f0"/>
      <rect x="645.37" y="325.89" width="6.54" height="6.54" fill="#f0f0f0"/>
      <rect x="645.37" y="336.85" width="6.54" height="6.54" fill="#f0f0f0"/>
      <rect x="645.37" y="358.79" width="6.54" height="6.54" fill="#f0f0f0"/>
      <rect x="634.99" y="238.18" width="6.54" height="6.54" fill="#f0f0f0"/>
      <rect x="634.99" y="249.14" width="6.54" height="6.54" fill="#f0f0f0"/>
      <rect x="634.99" y="260.1" width="6.54" height="6.54" fill="#f0f0f0"/>
      <rect x="634.99" y="271.08" width="6.54" height="6.54" fill="#f0f0f0"/>
      <rect x="634.99" y="282.04" width="6.54" height="6.54" fill="#f0f0f0"/>
      <rect x="634.99" y="293.01" width="6.54" height="6.54" fill="#f0f0f0"/>
      <rect x="634.99" y="303.97" width="6.54" height="6.54" fill="#f0f0f0"/>
      <rect x="634.99" y="402.64" width="6.54" height="6.54" fill="#f0f0f0"/>
      <rect x="624.6" y="238.18" width="6.54" height="6.54" fill="#f0f0f0"/>
      <rect x="624.6" y="249.14" width="6.54" height="6.54" fill="#f0f0f0"/>
      <rect x="624.6" y="260.1" width="6.54" height="6.54" fill="#f0f0f0"/>
      <rect x="624.6" y="271.08" width="6.54" height="6.54" fill="#f0f0f0"/>
      <rect x="624.6" y="282.04" width="6.54" height="6.54" fill="#f0f0f0"/>
      <rect x="624.6" y="293.01" width="6.54" height="6.54" fill="#f0f0f0"/>
      <rect x="624.6" y="303.97" width="6.54" height="6.54" fill="#f0f0f0"/>
      <rect x="624.6" y="314.93" width="6.54" height="6.54" fill="#f0f0f0"/>
      <rect x="624.6" y="380.72" width="6.54" height="6.54" fill="#f0f0f0"/>
      <rect x="624.6" y="391.68" width="6.54" height="6.54" fill="#f0f0f0"/>
      <rect x="624.6" y="402.64" width="6.54" height="6.54" fill="#f0f0f0"/>
      <rect x="624.6" y="413.62" width="6.54" height="6.54" fill="#f0f0f0"/>
      <rect x="624.6" y="457.47" width="6.54" height="6.54" fill="#f0f0f0"/>
      <rect x="614.21" y="238.18" width="6.54" height="6.54" fill="#f0f0f0"/>
      <rect x="614.21" y="249.14" width="6.54" height="6.54" fill="#f0f0f0"/>
      <rect x="614.21" y="260.1" width="6.54" height="6.54" fill="#f0f0f0"/>
      <rect x="614.21" y="271.08" width="6.54" height="6.54" fill="#f0f0f0"/>
      <rect x="614.21" y="282.04" width="6.54" height="6.54" fill="#f0f0f0"/>
      <rect x="614.21" y="293.01" width="6.54" height="6.54" fill="#f0f0f0"/>
      <rect x="614.21" y="303.97" width="6.54" height="6.54" fill="#f0f0f0"/>
      <rect x="614.21" y="314.93" width="6.54" height="6.54" fill="#f0f0f0"/>
      <rect x="614.21" y="325.89" width="6.54" height="6.54" fill="#f0f0f0"/>
      <rect x="614.21" y="336.85" width="6.54" height="6.54" fill="#f0f0f0"/>
      <rect x="614.21" y="369.76" width="6.54" height="6.54" fill="#f0f0f0"/>
      <rect x="614.21" y="380.72" width="6.54" height="6.54" fill="#f0f0f0"/>
      <rect x="614.21" y="391.68" width="6.54" height="6.54" fill="#f0f0f0"/>
      <rect x="614.21" y="402.64" width="6.54" height="6.54" fill="#f0f0f0"/>
      <rect x="614.21" y="413.62" width="6.54" height="6.54" fill="#f0f0f0"/>
      <rect x="614.21" y="457.47" width="6.54" height="6.54" fill="#f0f0f0"/>
      <rect x="603.83" y="238.18" width="6.54" height="6.54" fill="#f0f0f0"/>
      <rect x="603.83" y="249.14" width="6.54" height="6.54" fill="#f0f0f0"/>
      <rect x="603.83" y="260.1" width="6.54" height="6.54" fill="#f0f0f0"/>
      <rect x="603.83" y="271.08" width="6.54" height="6.54" fill="#f0f0f0"/>
      <rect x="603.83" y="282.04" width="6.54" height="6.54" fill="#f0f0f0"/>
      <rect x="603.83" y="293.01" width="6.54" height="6.54" fill="#f0f0f0"/>
      <rect x="603.83" y="303.97" width="6.54" height="6.54" fill="#f0f0f0"/>
      <rect x="603.83" y="314.93" width="6.54" height="6.54" fill="#f0f0f0"/>
      <rect x="603.83" y="325.89" width="6.54" height="6.54" fill="#f0f0f0"/>
      <rect x="603.83" y="336.85" width="6.54" height="6.54" fill="#f0f0f0"/>
      <rect x="603.83" y="347.83" width="6.54" height="6.54" fill="#f0f0f0"/>
      <rect x="603.83" y="358.79" width="6.54" height="6.54" fill="#f0f0f0"/>
      <rect x="603.83" y="369.76" width="6.54" height="6.54" fill="#f0f0f0"/>
      <rect x="603.83" y="380.72" width="6.54" height="6.54" fill="#f0f0f0"/>
      <rect x="603.83" y="391.68" width="6.54" height="6.54" fill="#f0f0f0"/>
      <rect x="603.83" y="402.64" width="6.54" height="6.54" fill="#f0f0f0"/>
      <rect x="603.83" y="413.62" width="6.54" height="6.54" fill="#f0f0f0"/>
      <rect x="603.83" y="424.58" width="6.54" height="6.54" fill="#f0f0f0"/>
      <rect x="593.44" y="238.18" width="6.54" height="6.54" fill="#f0f0f0"/>
      <rect x="593.44" y="249.14" width="6.54" height="6.54" fill="#f0f0f0"/>
      <rect x="593.44" y="260.1" width="6.54" height="6.54" fill="#f0f0f0"/>
      <rect x="593.44" y="271.08" width="6.54" height="6.54" fill="#f0f0f0"/>
      <rect x="593.44" y="282.04" width="6.54" height="6.54" fill="#f0f0f0"/>
      <rect x="593.44" y="293.01" width="6.54" height="6.54" fill="#f0f0f0"/>
      <rect x="593.44" y="303.97" width="6.54" height="6.54" fill="#f0f0f0"/>
      <rect x="593.44" y="314.93" width="6.54" height="6.54" fill="#f0f0f0"/>
      <rect x="593.44" y="325.89" width="6.54" height="6.54" fill="#f0f0f0"/>
      <rect x="593.44" y="336.85" width="6.54" height="6.54" fill="#f0f0f0"/>
      <rect x="593.44" y="369.76" width="6.54" height="6.54" fill="#f0f0f0"/>
      <rect x="593.44" y="380.72" width="6.54" height="6.54" fill="#f0f0f0"/>
      <rect x="593.44" y="391.68" width="6.54" height="6.54" fill="#f0f0f0"/>
      <rect x="593.44" y="402.64" width="6.54" height="6.54" fill="#f0f0f0"/>
      <rect x="583.06" y="238.18" width="6.54" height="6.54" fill="#f0f0f0"/>
      <rect x="583.06" y="249.14" width="6.54" height="6.54" fill="#f0f0f0"/>
      <rect x="583.06" y="260.1" width="6.54" height="6.54" fill="#f0f0f0"/>
      <rect x="583.06" y="271.08" width="6.54" height="6.54" fill="#f0f0f0"/>
      <rect x="583.06" y="282.04" width="6.54" height="6.54" fill="#f0f0f0"/>
      <rect x="583.06" y="293.01" width="6.54" height="6.54" fill="#f0f0f0"/>
      <rect x="583.06" y="303.97" width="6.54" height="6.54" fill="#f0f0f0"/>
      <rect x="583.06" y="314.93" width="6.54" height="6.54" fill="#f0f0f0"/>
      <rect x="583.06" y="325.89" width="6.54" height="6.54" fill="#f0f0f0"/>
      <rect x="583.06" y="336.85" width="6.54" height="6.54" fill="#f0f0f0"/>
      <rect x="583.06" y="369.76" width="6.54" height="6.54" fill="#f0f0f0"/>
      <rect x="583.06" y="380.72" width="6.54" height="6.54" fill="#f0f0f0"/>
      <rect x="583.06" y="391.68" width="6.54" height="6.54" fill="#f0f0f0"/>
      <rect x="466.1" y="209.72" width="6.54" height="6.54" fill="#f0f0f0"/>
      <rect x="466.1" y="220.68" width="6.54" height="6.54" fill="#f0f0f0"/>
      <rect x="466.1" y="231.64" width="6.54" height="6.54" fill="#f0f0f0"/>
      <rect x="466.1" y="242.6" width="6.54" height="6.54" fill="#f0f0f0"/>
      <rect x="466.1" y="253.56" width="6.54" height="6.54" fill="#f0f0f0"/>
      <rect x="466.1" y="264.54" width="6.54" height="6.54" fill="#f0f0f0"/>
      <rect x="466.1" y="275.51" width="6.54" height="6.54" fill="#f0f0f0"/>
      <rect x="466.1" y="286.47" width="6.54" height="6.54" fill="#f0f0f0"/>
      <rect x="466.1" y="319.35" width="6.54" height="6.54" fill="#f0f0f0"/>
      <rect x="466.1" y="330.31" width="6.54" height="6.54" fill="#f0f0f0"/>
      <rect x="455.72" y="209.72" width="6.54" height="6.54" fill="#f0f0f0"/>
      <rect x="455.72" y="220.68" width="6.54" height="6.54" fill="#f0f0f0"/>
      <rect x="455.72" y="231.64" width="6.54" height="6.54" fill="#f0f0f0"/>
      <rect x="455.72" y="242.6" width="6.54" height="6.54" fill="#f0f0f0"/>
      <rect x="455.72" y="253.56" width="6.54" height="6.54" fill="#f0f0f0"/>
      <rect x="455.72" y="264.54" width="6.54" height="6.54" fill="#f0f0f0"/>
      <rect x="455.72" y="275.51" width="6.54" height="6.54" fill="#f0f0f0"/>
      <rect x="455.72" y="286.47" width="6.54" height="6.54" fill="#f0f0f0"/>
      <rect x="455.72" y="330.31" width="6.54" height="6.54" fill="#f0f0f0"/>
      <rect x="445.33" y="209.72" width="6.54" height="6.54" fill="#f0f0f0"/>
      <rect x="445.33" y="220.68" width="6.54" height="6.54" fill="#f0f0f0"/>
      <rect x="445.33" y="231.64" width="6.54" height="6.54" fill="#f0f0f0"/>
      <rect x="445.33" y="242.6" width="6.54" height="6.54" fill="#f0f0f0"/>
      <rect x="445.33" y="253.56" width="6.54" height="6.54" fill="#f0f0f0"/>
      <rect x="445.33" y="264.54" width="6.54" height="6.54" fill="#f0f0f0"/>
      <rect x="445.33" y="275.51" width="6.54" height="6.54" fill="#f0f0f0"/>
      <rect x="445.33" y="286.47" width="6.54" height="6.54" fill="#f0f0f0"/>
      <rect x="434.95" y="209.72" width="6.54" height="6.54" fill="#f0f0f0"/>
      <rect x="434.95" y="220.68" width="6.54" height="6.54" fill="#f0f0f0"/>
      <rect x="434.95" y="231.64" width="6.54" height="6.54" fill="#f0f0f0"/>
      <rect x="434.95" y="242.6" width="6.54" height="6.54" fill="#f0f0f0"/>
      <rect x="434.95" y="253.56" width="6.54" height="6.54" fill="#f0f0f0"/>
      <rect x="434.95" y="264.54" width="6.54" height="6.54" fill="#f0f0f0"/>
      <rect x="434.95" y="286.47" width="6.54" height="6.54" fill="#f0f0f0"/>
      <rect x="434.95" y="297.43" width="6.54" height="6.54" fill="#f0f0f0"/>
      <rect x="434.95" y="330.31" width="6.54" height="6.54" fill="#f0f0f0"/>
      <rect x="434.95" y="341.29" width="6.54" height="6.54" fill="#f0f0f0"/>
      <rect x="434.95" y="352.25" width="6.54" height="6.54" fill="#f0f0f0"/>
      <rect x="434.95" y="363.22" width="6.54" height="6.54" fill="#f0f0f0"/>
      <rect x="434.95" y="374.18" width="6.54" height="6.54" fill="#f0f0f0"/>
      <rect x="434.95" y="385.14" width="6.54" height="6.54" fill="#f0f0f0"/>
      <rect x="434.95" y="396.1" width="6.54" height="6.54" fill="#f0f0f0"/>
      <rect x="424.56" y="209.72" width="6.54" height="6.54" fill="#f0f0f0"/>
      <rect x="424.56" y="220.68" width="6.54" height="6.54" fill="#f0f0f0"/>
      <rect x="424.56" y="231.64" width="6.54" height="6.54" fill="#f0f0f0"/>
      <rect x="424.56" y="242.6" width="6.54" height="6.54" fill="#f0f0f0"/>
      <rect x="424.56" y="253.56" width="6.54" height="6.54" fill="#f0f0f0"/>
      <rect x="424.56" y="264.54" width="6.54" height="6.54" fill="#f0f0f0"/>
      <rect x="424.56" y="297.43" width="6.54" height="6.54" fill="#f0f0f0"/>
      <rect x="424.56" y="308.39" width="6.54" height="6.54" fill="#f0f0f0"/>
      <rect x="424.56" y="319.35" width="6.54" height="6.54" fill="#f0f0f0"/>
      <rect x="424.56" y="330.31" width="6.54" height="6.54" fill="#f0f0f0"/>
      <rect x="424.56" y="341.29" width="6.54" height="6.54" fill="#f0f0f0"/>
      <rect x="424.56" y="352.25" width="6.54" height="6.54" fill="#f0f0f0"/>
      <rect x="424.56" y="363.22" width="6.54" height="6.54" fill="#f0f0f0"/>
      <rect x="424.56" y="374.18" width="6.54" height="6.54" fill="#f0f0f0"/>
      <rect x="424.56" y="385.14" width="6.54" height="6.54" fill="#f0f0f0"/>
      <rect x="424.56" y="396.1" width="6.54" height="6.54" fill="#f0f0f0"/>
      <rect x="424.56" y="407.06" width="6.54" height="6.54" fill="#f0f0f0"/>
      <rect x="424.56" y="429" width="6.54" height="6.54" fill="#f0f0f0"/>
      <rect x="414.16" y="209.72" width="6.54" height="6.54" fill="#f0f0f0"/>
      <rect x="414.16" y="220.68" width="6.54" height="6.54" fill="#f0f0f0"/>
      <rect x="414.16" y="231.64" width="6.54" height="6.54" fill="#f0f0f0"/>
      <rect x="414.16" y="242.6" width="6.54" height="6.54" fill="#f0f0f0"/>
      <rect x="414.16" y="253.56" width="6.54" height="6.54" fill="#f0f0f0"/>
      <rect x="414.16" y="264.54" width="6.54" height="6.54" fill="#f0f0f0"/>
      <rect x="414.16" y="297.43" width="6.54" height="6.54" fill="#f0f0f0"/>
      <rect x="414.16" y="308.39" width="6.54" height="6.54" fill="#f0f0f0"/>
      <rect x="414.16" y="319.35" width="6.54" height="6.54" fill="#f0f0f0"/>
      <rect x="414.16" y="330.31" width="6.54" height="6.54" fill="#f0f0f0"/>
      <rect x="414.16" y="363.22" width="6.54" height="6.54" fill="#f0f0f0"/>
      <rect x="414.16" y="374.18" width="6.54" height="6.54" fill="#f0f0f0"/>
      <rect x="414.16" y="385.14" width="6.54" height="6.54" fill="#f0f0f0"/>
      <rect x="414.16" y="396.1" width="6.54" height="6.54" fill="#f0f0f0"/>
      <rect x="414.16" y="407.06" width="6.54" height="6.54" fill="#f0f0f0"/>
      <rect x="414.16" y="429" width="6.54" height="6.54" fill="#f0f0f0"/>
      <rect x="414.16" y="439.97" width="6.54" height="6.54" fill="#f0f0f0"/>
      <rect x="319.91" y="311.66" width="6.54" height="6.54" fill="#f0f0f0"/>
      <rect x="319.91" y="322.62" width="6.54" height="6.54" fill="#f0f0f0"/>
      <rect x="319.91" y="333.58" width="6.54" height="6.54" fill="#f0f0f0"/>
      <rect x="319.91" y="344.56" width="6.54" height="6.54" fill="#f0f0f0"/>
      <rect x="319.91" y="355.52" width="6.54" height="6.54" fill="#f0f0f0"/>
      <rect x="319.91" y="366.49" width="6.54" height="6.54" fill="#f0f0f0"/>
      <rect x="319.91" y="377.45" width="6.54" height="6.54" fill="#f0f0f0"/>
      <rect x="319.91" y="410.33" width="6.54" height="6.54" fill="#f0f0f0"/>
      <rect x="319.91" y="421.31" width="6.54" height="6.54" fill="#f0f0f0"/>
      <rect x="319.91" y="432.27" width="6.54" height="6.54" fill="#f0f0f0"/>
      <rect x="309.52" y="311.66" width="6.54" height="6.54" fill="#f0f0f0"/>
      <rect x="309.52" y="322.62" width="6.54" height="6.54" fill="#f0f0f0"/>
      <rect x="309.52" y="333.58" width="6.54" height="6.54" fill="#f0f0f0"/>
      <rect x="309.52" y="344.56" width="6.54" height="6.54" fill="#f0f0f0"/>
      <rect x="309.52" y="355.52" width="6.54" height="6.54" fill="#f0f0f0"/>
      <rect x="309.52" y="366.49" width="6.54" height="6.54" fill="#f0f0f0"/>
      <rect x="309.52" y="377.45" width="6.54" height="6.54" fill="#f0f0f0"/>
      <rect x="299.14" y="311.66" width="6.54" height="6.54" fill="#f0f0f0"/>
      <rect x="299.14" y="322.62" width="6.54" height="6.54" fill="#f0f0f0"/>
      <rect x="299.14" y="333.58" width="6.54" height="6.54" fill="#f0f0f0"/>
      <rect x="299.14" y="344.56" width="6.54" height="6.54" fill="#f0f0f0"/>
      <rect x="299.14" y="355.52" width="6.54" height="6.54" fill="#f0f0f0"/>
      <rect x="299.14" y="366.49" width="6.54" height="6.54" fill="#f0f0f0"/>
      <rect x="299.14" y="377.45" width="6.54" height="6.54" fill="#f0f0f0"/>
      <rect x="288.75" y="311.66" width="6.54" height="6.54" fill="#f0f0f0"/>
      <rect x="288.75" y="322.62" width="6.54" height="6.54" fill="#f0f0f0"/>
      <rect x="288.75" y="333.58" width="6.54" height="6.54" fill="#f0f0f0"/>
      <rect x="288.75" y="344.56" width="6.54" height="6.54" fill="#f0f0f0"/>
      <rect x="288.75" y="355.52" width="6.54" height="6.54" fill="#f0f0f0"/>
      <rect x="288.75" y="366.49" width="6.54" height="6.54" fill="#f0f0f0"/>
      <rect x="288.75" y="377.45" width="6.54" height="6.54" fill="#f0f0f0"/>
      <rect x="288.75" y="388.41" width="6.54" height="6.54" fill="#f0f0f0"/>
      <rect x="288.75" y="399.37" width="6.54" height="6.54" fill="#f0f0f0"/>
      <rect x="288.75" y="410.33" width="6.54" height="6.54" fill="#f0f0f0"/>
      <rect x="288.75" y="421.31" width="6.54" height="6.54" fill="#f0f0f0"/>
      <rect x="278.37" y="311.66" width="6.54" height="6.54" fill="#f0f0f0"/>
      <rect x="278.37" y="322.62" width="6.54" height="6.54" fill="#f0f0f0"/>
      <rect x="278.37" y="333.58" width="6.54" height="6.54" fill="#f0f0f0"/>
      <rect x="278.37" y="344.56" width="6.54" height="6.54" fill="#f0f0f0"/>
      <rect x="278.37" y="355.52" width="6.54" height="6.54" fill="#f0f0f0"/>
      <rect x="278.37" y="366.49" width="6.54" height="6.54" fill="#f0f0f0"/>
      <rect x="278.37" y="377.45" width="6.54" height="6.54" fill="#f0f0f0"/>
      <rect x="278.37" y="388.41" width="6.54" height="6.54" fill="#f0f0f0"/>
      <rect x="278.37" y="399.37" width="6.54" height="6.54" fill="#f0f0f0"/>
      <rect x="278.37" y="410.33" width="6.54" height="6.54" fill="#f0f0f0"/>
      <rect x="278.37" y="421.31" width="6.54" height="6.54" fill="#f0f0f0"/>
      <rect x="278.37" y="432.27" width="6.54" height="6.54" fill="#f0f0f0"/>
      <rect x="278.37" y="465.16" width="6.54" height="6.54" fill="#f0f0f0"/>
      <rect x="278.37" y="476.12" width="6.54" height="6.54" fill="#f0f0f0"/>
      <rect x="267.98" y="311.66" width="6.54" height="6.54" fill="#f0f0f0"/>
      <rect x="267.98" y="322.62" width="6.54" height="6.54" fill="#f0f0f0"/>
      <rect x="267.98" y="333.58" width="6.54" height="6.54" fill="#f0f0f0"/>
      <rect x="267.98" y="366.49" width="6.54" height="6.54" fill="#f0f0f0"/>
      <rect x="267.98" y="377.45" width="6.54" height="6.54" fill="#f0f0f0"/>
      <rect x="267.98" y="388.41" width="6.54" height="6.54" fill="#f0f0f0"/>
      <rect x="267.98" y="399.37" width="6.54" height="6.54" fill="#f0f0f0"/>
      <rect x="267.98" y="410.33" width="6.54" height="6.54" fill="#f0f0f0"/>
      <rect x="267.98" y="421.31" width="6.54" height="6.54" fill="#f0f0f0"/>
      <rect x="267.98" y="432.27" width="6.54" height="6.54" fill="#f0f0f0"/>
      <rect x="267.98" y="465.16" width="6.54" height="6.54" fill="#f0f0f0"/>
      <rect x="267.98" y="476.12" width="6.54" height="6.54" fill="#f0f0f0"/>
      <rect x="267.98" y="487.1" width="6.54" height="6.54" fill="#f0f0f0"/>
      <rect x="159.11" y="245.87" width="6.54" height="6.54" fill="#f0f0f0"/>
      <rect x="159.11" y="256.83" width="6.54" height="6.54" fill="#f0f0f0"/>
      <rect x="159.11" y="267.81" width="6.54" height="6.54" fill="#f0f0f0"/>
      <rect x="159.11" y="278.78" width="6.54" height="6.54" fill="#f0f0f0"/>
      <rect x="159.11" y="289.74" width="6.54" height="6.54" fill="#f0f0f0"/>
      <rect x="159.11" y="300.7" width="6.54" height="6.54" fill="#f0f0f0"/>
      <rect x="159.11" y="311.66" width="6.54" height="6.54" fill="#f0f0f0"/>
      <rect x="159.11" y="322.62" width="6.54" height="6.54" fill="#f0f0f0"/>
      <rect x="159.11" y="333.58" width="6.54" height="6.54" fill="#f0f0f0"/>
      <rect x="159.11" y="344.56" width="6.54" height="6.54" fill="#f0f0f0"/>
      <rect x="159.11" y="355.52" width="6.54" height="6.54" fill="#f0f0f0"/>
      <rect x="159.11" y="366.49" width="6.54" height="6.54" fill="#f0f0f0"/>
      <rect x="159.11" y="377.45" width="6.54" height="6.54" fill="#f0f0f0"/>
      <rect x="159.11" y="388.41" width="6.54" height="6.54" fill="#f0f0f0"/>
      <rect x="159.11" y="399.37" width="6.54" height="6.54" fill="#f0f0f0"/>
      <rect x="159.11" y="410.33" width="6.54" height="6.54" fill="#f0f0f0"/>
      <rect x="159.11" y="421.31" width="6.54" height="6.54" fill="#f0f0f0"/>
      <rect x="159.11" y="432.27" width="6.54" height="6.54" fill="#f0f0f0"/>
      <rect x="159.11" y="443.23" width="6.54" height="6.54" fill="#f0f0f0"/>
      <rect x="159.11" y="454.2" width="6.54" height="6.54" fill="#f0f0f0"/>
      <rect x="159.11" y="465.16" width="6.54" height="6.54" fill="#f0f0f0"/>
      <rect x="159.11" y="476.12" width="6.54" height="6.54" fill="#f0f0f0"/>
      <rect x="159.11" y="487.1" width="6.54" height="6.54" fill="#f0f0f0"/>
      <rect x="148.72" y="245.87" width="6.54" height="6.54" fill="#f0f0f0"/>
      <rect x="148.72" y="256.83" width="6.54" height="6.54" fill="#f0f0f0"/>
      <rect x="148.72" y="267.81" width="6.54" height="6.54" fill="#f0f0f0"/>
      <rect x="148.72" y="278.78" width="6.54" height="6.54" fill="#f0f0f0"/>
      <rect x="148.72" y="289.74" width="6.54" height="6.54" fill="#f0f0f0"/>
      <rect x="148.72" y="300.7" width="6.54" height="6.54" fill="#f0f0f0"/>
      <rect x="148.72" y="311.66" width="6.54" height="6.54" fill="#f0f0f0"/>
      <rect x="148.72" y="322.62" width="6.54" height="6.54" fill="#f0f0f0"/>
      <rect x="148.72" y="333.58" width="6.54" height="6.54" fill="#f0f0f0"/>
      <rect x="148.72" y="344.56" width="6.54" height="6.54" fill="#f0f0f0"/>
      <rect x="148.72" y="355.52" width="6.54" height="6.54" fill="#f0f0f0"/>
      <rect x="148.72" y="366.49" width="6.54" height="6.54" fill="#f0f0f0"/>
      <rect x="148.72" y="377.45" width="6.54" height="6.54" fill="#f0f0f0"/>
      <rect x="148.72" y="388.41" width="6.54" height="6.54" fill="#f0f0f0"/>
      <rect x="148.72" y="399.37" width="6.54" height="6.54" fill="#f0f0f0"/>
      <rect x="148.72" y="410.33" width="6.54" height="6.54" fill="#f0f0f0"/>
      <rect x="148.72" y="421.31" width="6.54" height="6.54" fill="#f0f0f0"/>
      <rect x="148.72" y="432.27" width="6.54" height="6.54" fill="#f0f0f0"/>
      <rect x="148.72" y="443.23" width="6.54" height="6.54" fill="#f0f0f0"/>
      <rect x="138.34" y="245.87" width="6.54" height="6.54" fill="#f0f0f0"/>
      <rect x="138.34" y="256.83" width="6.54" height="6.54" fill="#f0f0f0"/>
      <rect x="138.34" y="267.81" width="6.54" height="6.54" fill="#f0f0f0"/>
      <rect x="138.34" y="278.78" width="6.54" height="6.54" fill="#f0f0f0"/>
      <rect x="138.34" y="289.74" width="6.54" height="6.54" fill="#f0f0f0"/>
      <rect x="138.34" y="300.7" width="6.54" height="6.54" fill="#f0f0f0"/>
      <rect x="138.34" y="311.66" width="6.54" height="6.54" fill="#f0f0f0"/>
      <rect x="138.34" y="322.62" width="6.54" height="6.54" fill="#f0f0f0"/>
      <rect x="138.34" y="333.58" width="6.54" height="6.54" fill="#f0f0f0"/>
      <rect x="138.34" y="344.56" width="6.54" height="6.54" fill="#f0f0f0"/>
      <rect x="138.34" y="355.52" width="6.54" height="6.54" fill="#f0f0f0"/>
      <rect x="138.34" y="366.49" width="6.54" height="6.54" fill="#f0f0f0"/>
      <rect x="138.34" y="377.45" width="6.54" height="6.54" fill="#f0f0f0"/>
      <rect x="138.34" y="388.41" width="6.54" height="6.54" fill="#f0f0f0"/>
      <rect x="138.34" y="399.37" width="6.54" height="6.54" fill="#f0f0f0"/>
      <rect x="138.34" y="410.33" width="6.54" height="6.54" fill="#f0f0f0"/>
      <rect x="138.34" y="421.31" width="6.54" height="6.54" fill="#f0f0f0"/>
      <rect x="138.34" y="432.27" width="6.54" height="6.54" fill="#f0f0f0"/>
      <rect x="138.34" y="443.23" width="6.54" height="6.54" fill="#f0f0f0"/>
      <rect x="127.95" y="245.87" width="6.54" height="6.54" fill="#f0f0f0"/>
      <rect x="127.95" y="256.83" width="6.54" height="6.54" fill="#f0f0f0"/>
      <rect x="127.95" y="267.81" width="6.54" height="6.54" fill="#f0f0f0"/>
      <rect x="127.95" y="278.78" width="6.54" height="6.54" fill="#f0f0f0"/>
      <rect x="127.95" y="289.74" width="6.54" height="6.54" fill="#f0f0f0"/>
      <rect x="127.95" y="300.7" width="6.54" height="6.54" fill="#f0f0f0"/>
      <rect x="127.95" y="311.66" width="6.54" height="6.54" fill="#f0f0f0"/>
      <rect x="127.95" y="322.62" width="6.54" height="6.54" fill="#f0f0f0"/>
      <rect x="127.95" y="333.58" width="6.54" height="6.54" fill="#f0f0f0"/>
      <rect x="127.95" y="344.56" width="6.54" height="6.54" fill="#f0f0f0"/>
      <rect x="127.95" y="355.52" width="6.54" height="6.54" fill="#f0f0f0"/>
      <rect x="127.95" y="366.49" width="6.54" height="6.54" fill="#f0f0f0"/>
      <rect x="127.95" y="377.45" width="6.54" height="6.54" fill="#f0f0f0"/>
      <rect x="127.95" y="388.41" width="6.54" height="6.54" fill="#f0f0f0"/>
      <rect x="127.95" y="399.37" width="6.54" height="6.54" fill="#f0f0f0"/>
      <rect x="117.56" y="245.87" width="6.54" height="6.54" fill="#f0f0f0"/>
      <rect x="117.56" y="256.83" width="6.54" height="6.54" fill="#f0f0f0"/>
      <rect x="117.56" y="267.81" width="6.54" height="6.54" fill="#f0f0f0"/>
      <rect x="117.56" y="278.78" width="6.54" height="6.54" fill="#f0f0f0"/>
      <rect x="117.56" y="289.74" width="6.54" height="6.54" fill="#f0f0f0"/>
      <rect x="117.56" y="300.7" width="6.54" height="6.54" fill="#f0f0f0"/>
      <rect x="117.56" y="311.66" width="6.54" height="6.54" fill="#f0f0f0"/>
      <rect x="117.56" y="322.62" width="6.54" height="6.54" fill="#f0f0f0"/>
      <rect x="117.56" y="333.58" width="6.54" height="6.54" fill="#f0f0f0"/>
      <rect x="117.56" y="344.56" width="6.54" height="6.54" fill="#f0f0f0"/>
      <rect x="117.56" y="355.52" width="6.54" height="6.54" fill="#f0f0f0"/>
      <rect x="117.56" y="366.49" width="6.54" height="6.54" fill="#f0f0f0"/>
      <rect x="117.56" y="377.45" width="6.54" height="6.54" fill="#f0f0f0"/>
      <rect x="107.16" y="245.87" width="6.54" height="6.54" fill="#f0f0f0"/>
      <rect x="107.16" y="256.83" width="6.54" height="6.54" fill="#f0f0f0"/>
      <rect x="107.16" y="267.81" width="6.54" height="6.54" fill="#f0f0f0"/>
      <rect x="107.16" y="278.78" width="6.54" height="6.54" fill="#f0f0f0"/>
      <rect x="107.16" y="289.74" width="6.54" height="6.54" fill="#f0f0f0"/>
      <rect x="107.16" y="300.7" width="6.54" height="6.54" fill="#f0f0f0"/>
      <rect x="107.16" y="311.66" width="6.54" height="6.54" fill="#f0f0f0"/>
      <rect x="107.16" y="322.62" width="6.54" height="6.54" fill="#f0f0f0"/>
      <rect x="107.16" y="333.58" width="6.54" height="6.54" fill="#f0f0f0"/>
      <rect x="107.16" y="344.56" width="6.54" height="6.54" fill="#f0f0f0"/>
      <rect x="107.16" y="355.52" width="6.54" height="6.54" fill="#f0f0f0"/>
      <rect x="107.16" y="366.49" width="6.54" height="6.54" fill="#f0f0f0"/>
      <rect x="713.46" y="242.6" width="6.54" height="6.54" fill="#f0f0f0"/>
      <rect x="713.46" y="253.56" width="6.54" height="6.54" fill="#f0f0f0"/>
      <rect x="713.46" y="264.54" width="6.54" height="6.54" fill="#f0f0f0"/>
      <rect x="713.46" y="275.51" width="6.54" height="6.54" fill="#f0f0f0"/>
      <rect x="713.46" y="286.47" width="6.54" height="6.54" fill="#f0f0f0"/>
      <rect x="713.46" y="297.43" width="6.54" height="6.54" fill="#f0f0f0"/>
      <rect x="713.46" y="308.39" width="6.54" height="6.54" fill="#f0f0f0"/>
      <rect x="713.46" y="319.35" width="6.54" height="6.54" fill="#f0f0f0"/>
      <rect x="713.46" y="330.31" width="6.54" height="6.54" fill="#f0f0f0"/>
      <rect x="713.46" y="341.29" width="6.54" height="6.54" fill="#f0f0f0"/>
      <rect x="713.46" y="352.25" width="6.54" height="6.54" fill="#f0f0f0"/>
      <rect x="713.46" y="363.22" width="6.54" height="6.54" fill="#f0f0f0"/>
      <rect x="713.46" y="374.18" width="6.54" height="6.54" fill="#f0f0f0"/>
      <rect x="713.46" y="385.14" width="6.54" height="6.54" fill="#f0f0f0"/>
      <rect x="713.46" y="396.1" width="6.54" height="6.54" fill="#f0f0f0"/>
      <rect x="713.46" y="407.06" width="6.54" height="6.54" fill="#f0f0f0"/>
      <rect x="713.46" y="418.04" width="6.54" height="6.54" fill="#f0f0f0"/>
      <rect x="713.46" y="439.97" width="6.54" height="6.54" fill="#f0f0f0"/>
      <rect x="713.46" y="450.93" width="6.54" height="6.54" fill="#f0f0f0"/>
      <rect x="713.46" y="461.89" width="6.54" height="6.54" fill="#f0f0f0"/>
      <rect x="713.46" y="472.85" width="6.54" height="6.54" fill="#f0f0f0"/>
      <rect x="713.46" y="483.81" width="6.54" height="6.54" fill="#f0f0f0"/>
      <rect x="703.08" y="242.6" width="6.54" height="6.54" fill="#f0f0f0"/>
      <rect x="703.08" y="253.56" width="6.54" height="6.54" fill="#f0f0f0"/>
      <rect x="703.08" y="264.54" width="6.54" height="6.54" fill="#f0f0f0"/>
      <rect x="703.08" y="275.51" width="6.54" height="6.54" fill="#f0f0f0"/>
      <rect x="703.08" y="286.47" width="6.54" height="6.54" fill="#f0f0f0"/>
      <rect x="703.08" y="297.43" width="6.54" height="6.54" fill="#f0f0f0"/>
      <rect x="703.08" y="308.39" width="6.54" height="6.54" fill="#f0f0f0"/>
      <rect x="703.08" y="319.35" width="6.54" height="6.54" fill="#f0f0f0"/>
      <rect x="703.08" y="330.31" width="6.54" height="6.54" fill="#f0f0f0"/>
      <rect x="703.08" y="341.29" width="6.54" height="6.54" fill="#f0f0f0"/>
      <rect x="703.08" y="352.25" width="6.54" height="6.54" fill="#f0f0f0"/>
      <rect x="703.08" y="363.22" width="6.54" height="6.54" fill="#f0f0f0"/>
      <rect x="703.08" y="374.18" width="6.54" height="6.54" fill="#f0f0f0"/>
      <rect x="703.08" y="385.14" width="6.54" height="6.54" fill="#f0f0f0"/>
      <rect x="703.08" y="396.1" width="6.54" height="6.54" fill="#f0f0f0"/>
      <rect x="703.08" y="407.06" width="6.54" height="6.54" fill="#f0f0f0"/>
      <rect x="703.08" y="472.85" width="6.54" height="6.54" fill="#f0f0f0"/>
      <rect x="703.08" y="483.81" width="6.54" height="6.54" fill="#f0f0f0"/>
      <rect x="692.69" y="242.6" width="6.54" height="6.54" fill="#f0f0f0"/>
      <rect x="692.69" y="253.56" width="6.54" height="6.54" fill="#f0f0f0"/>
      <rect x="692.69" y="264.54" width="6.54" height="6.54" fill="#f0f0f0"/>
      <rect x="692.69" y="275.51" width="6.54" height="6.54" fill="#f0f0f0"/>
      <rect x="692.69" y="286.47" width="6.54" height="6.54" fill="#f0f0f0"/>
      <rect x="692.69" y="297.43" width="6.54" height="6.54" fill="#f0f0f0"/>
      <rect x="692.69" y="308.39" width="6.54" height="6.54" fill="#f0f0f0"/>
      <rect x="692.69" y="319.35" width="6.54" height="6.54" fill="#f0f0f0"/>
      <rect x="692.69" y="330.31" width="6.54" height="6.54" fill="#f0f0f0"/>
      <rect x="692.69" y="341.29" width="6.54" height="6.54" fill="#f0f0f0"/>
      <rect x="692.69" y="352.25" width="6.54" height="6.54" fill="#f0f0f0"/>
      <rect x="692.69" y="363.22" width="6.54" height="6.54" fill="#f0f0f0"/>
      <rect x="692.69" y="374.18" width="6.54" height="6.54" fill="#f0f0f0"/>
      <rect x="692.69" y="385.14" width="6.54" height="6.54" fill="#f0f0f0"/>
      <rect x="692.69" y="396.1" width="6.54" height="6.54" fill="#f0f0f0"/>
      <rect x="692.69" y="407.06" width="6.54" height="6.54" fill="#f0f0f0"/>
      <rect x="692.69" y="429" width="6.54" height="6.54" fill="#f0f0f0"/>
      <rect x="692.69" y="439.97" width="6.54" height="6.54" fill="#f0f0f0"/>
      <rect x="692.69" y="450.93" width="6.54" height="6.54" fill="#f0f0f0"/>
      <rect x="692.69" y="461.89" width="6.54" height="6.54" fill="#f0f0f0"/>
      <rect x="692.69" y="483.81" width="6.54" height="6.54" fill="#f0f0f0"/>
      <rect x="751.18" y="380.72" width="6.54" height="6.54" fill="#f0f0f0"/>
      <rect x="751.18" y="391.68" width="6.54" height="6.54" fill="#f0f0f0"/>
      <rect x="751.18" y="402.64" width="6.54" height="6.54" fill="#f0f0f0"/>
      <rect x="751.18" y="413.62" width="6.54" height="6.54" fill="#f0f0f0"/>
      <rect x="751.18" y="424.58" width="6.54" height="6.54" fill="#f0f0f0"/>
      <rect x="751.18" y="435.54" width="6.54" height="6.54" fill="#f0f0f0"/>
      <rect x="751.18" y="446.5" width="6.54" height="6.54" fill="#f0f0f0"/>
      <rect x="751.18" y="468.43" width="6.54" height="6.54" fill="#f0f0f0"/>
      <rect x="751.18" y="479.39" width="6.54" height="6.54" fill="#f0f0f0"/>
      <rect x="751.18" y="490.35" width="6.54" height="6.54" fill="#f0f0f0"/>
      <rect x="751.18" y="501.33" width="6.54" height="6.54" fill="#f0f0f0"/>
      <rect x="751.18" y="512.29" width="6.54" height="6.54" fill="#f0f0f0"/>
      <rect x="751.18" y="523.25" width="6.54" height="6.54" fill="#f0f0f0"/>
      <rect x="751.18" y="534.22" width="6.54" height="6.54" fill="#f0f0f0"/>
      <rect x="751.18" y="545.18" width="6.54" height="6.54" fill="#f0f0f0"/>
      <rect x="740.79" y="380.72" width="6.54" height="6.54" fill="#f0f0f0"/>
      <rect x="740.79" y="391.68" width="6.54" height="6.54" fill="#f0f0f0"/>
      <rect x="740.79" y="402.64" width="6.54" height="6.54" fill="#f0f0f0"/>
      <rect x="740.79" y="413.62" width="6.54" height="6.54" fill="#f0f0f0"/>
      <rect x="740.79" y="424.58" width="6.54" height="6.54" fill="#f0f0f0"/>
      <rect x="740.79" y="435.54" width="6.54" height="6.54" fill="#f0f0f0"/>
      <rect x="740.79" y="468.43" width="6.54" height="6.54" fill="#f0f0f0"/>
      <rect x="740.79" y="479.39" width="6.54" height="6.54" fill="#f0f0f0"/>
      <rect x="740.79" y="490.35" width="6.54" height="6.54" fill="#f0f0f0"/>
      <rect x="740.79" y="501.33" width="6.54" height="6.54" fill="#f0f0f0"/>
      <rect x="740.79" y="512.29" width="6.54" height="6.54" fill="#f0f0f0"/>
      <rect x="740.79" y="523.25" width="6.54" height="6.54" fill="#f0f0f0"/>
      <rect x="740.79" y="534.22" width="6.54" height="6.54" fill="#f0f0f0"/>
      <rect x="740.79" y="545.18" width="6.54" height="6.54" fill="#f0f0f0"/>
      <rect x="730.41" y="380.72" width="6.54" height="6.54" fill="#f0f0f0"/>
      <rect x="730.41" y="391.68" width="6.54" height="6.54" fill="#f0f0f0"/>
      <rect x="730.41" y="402.64" width="6.54" height="6.54" fill="#f0f0f0"/>
      <rect x="730.41" y="413.62" width="6.54" height="6.54" fill="#f0f0f0"/>
      <rect x="730.41" y="424.58" width="6.54" height="6.54" fill="#f0f0f0"/>
      <rect x="730.41" y="435.54" width="6.54" height="6.54" fill="#f0f0f0"/>
      <rect x="730.41" y="457.47" width="6.54" height="6.54" fill="#f0f0f0"/>
      <rect x="730.41" y="468.43" width="6.54" height="6.54" fill="#f0f0f0"/>
      <rect x="730.41" y="479.39" width="6.54" height="6.54" fill="#f0f0f0"/>
      <rect x="730.41" y="490.35" width="6.54" height="6.54" fill="#f0f0f0"/>
      <rect x="730.41" y="501.33" width="6.54" height="6.54" fill="#f0f0f0"/>
      <rect x="730.41" y="512.29" width="6.54" height="6.54" fill="#f0f0f0"/>
      <rect x="730.41" y="523.25" width="6.54" height="6.54" fill="#f0f0f0"/>
      <rect x="730.41" y="534.22" width="6.54" height="6.54" fill="#f0f0f0"/>
      <rect x="730.41" y="545.18" width="6.54" height="6.54" fill="#f0f0f0"/>
      <rect x="511.49" y="319.35" width="6.54" height="6.54" fill="#f0f0f0"/>
      <rect x="511.49" y="330.31" width="6.54" height="6.54" fill="#f0f0f0"/>
      <rect x="511.49" y="341.29" width="6.54" height="6.54" fill="#f0f0f0"/>
      <rect x="511.49" y="352.25" width="6.54" height="6.54" fill="#f0f0f0"/>
      <rect x="511.49" y="363.22" width="6.54" height="6.54" fill="#f0f0f0"/>
      <rect x="511.49" y="374.18" width="6.54" height="6.54" fill="#f0f0f0"/>
      <rect x="511.49" y="385.14" width="6.54" height="6.54" fill="#f0f0f0"/>
      <rect x="511.49" y="396.1" width="6.54" height="6.54" fill="#f0f0f0"/>
      <rect x="511.49" y="407.06" width="6.54" height="6.54" fill="#f0f0f0"/>
      <rect x="511.49" y="418.04" width="6.54" height="6.54" fill="#f0f0f0"/>
      <rect x="511.49" y="429" width="6.54" height="6.54" fill="#f0f0f0"/>
      <rect x="511.49" y="439.97" width="6.54" height="6.54" fill="#f0f0f0"/>
      <rect x="511.49" y="450.93" width="6.54" height="6.54" fill="#f0f0f0"/>
      <rect x="511.49" y="472.85" width="6.54" height="6.54" fill="#f0f0f0"/>
      <rect x="511.49" y="483.81" width="6.54" height="6.54" fill="#f0f0f0"/>
      <rect x="511.49" y="494.79" width="6.54" height="6.54" fill="#f0f0f0"/>
      <rect x="511.49" y="505.75" width="6.54" height="6.54" fill="#f0f0f0"/>
      <rect x="511.49" y="527.68" width="6.54" height="6.54" fill="#f0f0f0"/>
      <rect x="511.49" y="538.64" width="6.54" height="6.54" fill="#f0f0f0"/>
      <rect x="511.49" y="549.6" width="6.54" height="6.54" fill="#f0f0f0"/>
      <rect x="501.11" y="319.35" width="6.54" height="6.54" fill="#f0f0f0"/>
      <rect x="501.11" y="330.31" width="6.54" height="6.54" fill="#f0f0f0"/>
      <rect x="501.11" y="341.29" width="6.54" height="6.54" fill="#f0f0f0"/>
      <rect x="501.11" y="352.25" width="6.54" height="6.54" fill="#f0f0f0"/>
      <rect x="501.11" y="363.22" width="6.54" height="6.54" fill="#f0f0f0"/>
      <rect x="501.11" y="374.18" width="6.54" height="6.54" fill="#f0f0f0"/>
      <rect x="501.11" y="385.14" width="6.54" height="6.54" fill="#f0f0f0"/>
      <rect x="501.11" y="396.1" width="6.54" height="6.54" fill="#f0f0f0"/>
      <rect x="501.11" y="407.06" width="6.54" height="6.54" fill="#f0f0f0"/>
      <rect x="501.11" y="418.04" width="6.54" height="6.54" fill="#f0f0f0"/>
      <rect x="501.11" y="429" width="6.54" height="6.54" fill="#f0f0f0"/>
      <rect x="501.11" y="439.97" width="6.54" height="6.54" fill="#f0f0f0"/>
      <rect x="501.11" y="450.93" width="6.54" height="6.54" fill="#f0f0f0"/>
      <rect x="501.11" y="483.81" width="6.54" height="6.54" fill="#f0f0f0"/>
      <rect x="501.11" y="494.79" width="6.54" height="6.54" fill="#f0f0f0"/>
      <rect x="501.11" y="516.71" width="6.54" height="6.54" fill="#f0f0f0"/>
      <rect x="501.11" y="527.68" width="6.54" height="6.54" fill="#f0f0f0"/>
      <rect x="501.11" y="538.64" width="6.54" height="6.54" fill="#f0f0f0"/>
      <rect x="501.11" y="549.6" width="6.54" height="6.54" fill="#f0f0f0"/>
      <rect x="490.72" y="319.35" width="6.54" height="6.54" fill="#f0f0f0"/>
      <rect x="490.72" y="330.31" width="6.54" height="6.54" fill="#f0f0f0"/>
      <rect x="490.72" y="341.29" width="6.54" height="6.54" fill="#f0f0f0"/>
      <rect x="490.72" y="352.25" width="6.54" height="6.54" fill="#f0f0f0"/>
      <rect x="490.72" y="363.22" width="6.54" height="6.54" fill="#f0f0f0"/>
      <rect x="490.72" y="374.18" width="6.54" height="6.54" fill="#f0f0f0"/>
      <rect x="490.72" y="385.14" width="6.54" height="6.54" fill="#f0f0f0"/>
      <rect x="490.72" y="396.1" width="6.54" height="6.54" fill="#f0f0f0"/>
      <rect x="490.72" y="407.06" width="6.54" height="6.54" fill="#f0f0f0"/>
      <rect x="490.72" y="418.04" width="6.54" height="6.54" fill="#f0f0f0"/>
      <rect x="490.72" y="429" width="6.54" height="6.54" fill="#f0f0f0"/>
      <rect x="490.72" y="439.97" width="6.54" height="6.54" fill="#f0f0f0"/>
      <rect x="490.72" y="450.93" width="6.54" height="6.54" fill="#f0f0f0"/>
      <rect x="490.72" y="461.89" width="6.54" height="6.54" fill="#f0f0f0"/>
      <rect x="490.72" y="483.81" width="6.54" height="6.54" fill="#f0f0f0"/>
      <rect x="490.72" y="505.75" width="6.54" height="6.54" fill="#f0f0f0"/>
      <rect x="490.72" y="516.71" width="6.54" height="6.54" fill="#f0f0f0"/>
      <rect x="490.72" y="527.68" width="6.54" height="6.54" fill="#f0f0f0"/>
      <rect x="490.72" y="538.64" width="6.54" height="6.54" fill="#f0f0f0"/>
      <rect x="490.72" y="549.6" width="6.54" height="6.54" fill="#f0f0f0"/>
      <rect x="553.81" y="381.87" width="6.54" height="6.54" fill="#f0f0f0"/>
      <rect x="553.81" y="392.83" width="6.54" height="6.54" fill="#f0f0f0"/>
      <rect x="553.81" y="403.79" width="6.54" height="6.54" fill="#f0f0f0"/>
      <rect x="553.81" y="414.77" width="6.54" height="6.54" fill="#f0f0f0"/>
      <rect x="553.81" y="425.73" width="6.54" height="6.54" fill="#f0f0f0"/>
      <rect x="553.81" y="436.7" width="6.54" height="6.54" fill="#f0f0f0"/>
      <rect x="553.81" y="469.58" width="6.54" height="6.54" fill="#f0f0f0"/>
      <rect x="553.81" y="480.56" width="6.54" height="6.54" fill="#f0f0f0"/>
      <rect x="553.81" y="491.52" width="6.54" height="6.54" fill="#f0f0f0"/>
      <rect x="553.81" y="502.48" width="6.54" height="6.54" fill="#f0f0f0"/>
      <rect x="553.81" y="513.44" width="6.54" height="6.54" fill="#f0f0f0"/>
      <rect x="553.81" y="524.41" width="6.54" height="6.54" fill="#f0f0f0"/>
      <rect x="553.81" y="535.37" width="6.54" height="6.54" fill="#f0f0f0"/>
      <rect x="543.43" y="381.87" width="6.54" height="6.54" fill="#f0f0f0"/>
      <rect x="543.43" y="392.83" width="6.54" height="6.54" fill="#f0f0f0"/>
      <rect x="543.43" y="403.79" width="6.54" height="6.54" fill="#f0f0f0"/>
      <rect x="543.43" y="414.77" width="6.54" height="6.54" fill="#f0f0f0"/>
      <rect x="543.43" y="425.73" width="6.54" height="6.54" fill="#f0f0f0"/>
      <rect x="543.43" y="436.7" width="6.54" height="6.54" fill="#f0f0f0"/>
      <rect x="543.43" y="469.58" width="6.54" height="6.54" fill="#f0f0f0"/>
      <rect x="543.43" y="480.56" width="6.54" height="6.54" fill="#f0f0f0"/>
      <rect x="543.43" y="491.52" width="6.54" height="6.54" fill="#f0f0f0"/>
      <rect x="543.43" y="502.48" width="6.54" height="6.54" fill="#f0f0f0"/>
      <rect x="543.43" y="513.44" width="6.54" height="6.54" fill="#f0f0f0"/>
      <rect x="543.43" y="524.41" width="6.54" height="6.54" fill="#f0f0f0"/>
      <rect x="543.43" y="546.33" width="6.54" height="6.54" fill="#f0f0f0"/>
      <rect x="198.35" y="333.58" width="6.54" height="6.54" fill="#f0f0f0"/>
      <rect x="198.35" y="344.56" width="6.54" height="6.54" fill="#f0f0f0"/>
      <rect x="198.35" y="355.52" width="6.54" height="6.54" fill="#f0f0f0"/>
      <rect x="198.35" y="366.49" width="6.54" height="6.54" fill="#f0f0f0"/>
      <rect x="198.35" y="377.45" width="6.54" height="6.54" fill="#f0f0f0"/>
      <rect x="198.35" y="388.41" width="6.54" height="6.54" fill="#f0f0f0"/>
      <rect x="198.35" y="399.37" width="6.54" height="6.54" fill="#f0f0f0"/>
      <rect x="198.35" y="410.33" width="6.54" height="6.54" fill="#f0f0f0"/>
      <rect x="198.35" y="421.31" width="6.54" height="6.54" fill="#f0f0f0"/>
      <rect x="198.35" y="432.27" width="6.54" height="6.54" fill="#f0f0f0"/>
      <rect x="198.35" y="443.23" width="6.54" height="6.54" fill="#f0f0f0"/>
      <rect x="198.35" y="465.16" width="6.54" height="6.54" fill="#f0f0f0"/>
      <rect x="198.35" y="476.12" width="6.54" height="6.54" fill="#f0f0f0"/>
      <rect x="198.35" y="487.1" width="6.54" height="6.54" fill="#f0f0f0"/>
      <rect x="198.35" y="498.06" width="6.54" height="6.54" fill="#f0f0f0"/>
      <rect x="198.35" y="509.02" width="6.54" height="6.54" fill="#f0f0f0"/>
      <rect x="198.35" y="519.98" width="6.54" height="6.54" fill="#f0f0f0"/>
      <rect x="198.35" y="530.95" width="6.54" height="6.54" fill="#f0f0f0"/>
      <rect x="198.35" y="541.91" width="6.54" height="6.54" fill="#f0f0f0"/>
      <rect x="187.96" y="333.58" width="6.54" height="6.54" fill="#f0f0f0"/>
      <rect x="187.96" y="344.56" width="6.54" height="6.54" fill="#f0f0f0"/>
      <rect x="187.96" y="355.52" width="6.54" height="6.54" fill="#f0f0f0"/>
      <rect x="187.96" y="366.49" width="6.54" height="6.54" fill="#f0f0f0"/>
      <rect x="187.96" y="377.45" width="6.54" height="6.54" fill="#f0f0f0"/>
      <rect x="187.96" y="388.41" width="6.54" height="6.54" fill="#f0f0f0"/>
      <rect x="187.96" y="399.37" width="6.54" height="6.54" fill="#f0f0f0"/>
      <rect x="187.96" y="410.33" width="6.54" height="6.54" fill="#f0f0f0"/>
      <rect x="187.96" y="421.31" width="6.54" height="6.54" fill="#f0f0f0"/>
      <rect x="187.96" y="432.27" width="6.54" height="6.54" fill="#f0f0f0"/>
      <rect x="187.96" y="443.23" width="6.54" height="6.54" fill="#f0f0f0"/>
      <rect x="187.96" y="454.2" width="6.54" height="6.54" fill="#f0f0f0"/>
      <rect x="187.96" y="465.16" width="6.54" height="6.54" fill="#f0f0f0"/>
      <rect x="187.96" y="476.12" width="6.54" height="6.54" fill="#f0f0f0"/>
      <rect x="187.96" y="487.1" width="6.54" height="6.54" fill="#f0f0f0"/>
      <rect x="187.96" y="498.06" width="6.54" height="6.54" fill="#f0f0f0"/>
      <rect x="187.96" y="509.02" width="6.54" height="6.54" fill="#f0f0f0"/>
      <rect x="187.96" y="519.98" width="6.54" height="6.54" fill="#f0f0f0"/>
      <rect x="187.96" y="530.95" width="6.54" height="6.54" fill="#f0f0f0"/>
      <rect x="187.96" y="541.91" width="6.54" height="6.54" fill="#f0f0f0"/>
      <rect x="249.51" y="376.3" width="6.54" height="6.54" fill="#f0f0f0"/>
      <rect x="249.51" y="387.26" width="6.54" height="6.54" fill="#f0f0f0"/>
      <rect x="249.51" y="398.22" width="6.54" height="6.54" fill="#f0f0f0"/>
      <rect x="249.51" y="409.18" width="6.54" height="6.54" fill="#f0f0f0"/>
      <rect x="249.51" y="420.16" width="6.54" height="6.54" fill="#f0f0f0"/>
      <rect x="249.51" y="431.12" width="6.54" height="6.54" fill="#f0f0f0"/>
      <rect x="249.51" y="442.08" width="6.54" height="6.54" fill="#f0f0f0"/>
      <rect x="249.51" y="453.04" width="6.54" height="6.54" fill="#f0f0f0"/>
      <rect x="249.51" y="464.01" width="6.54" height="6.54" fill="#f0f0f0"/>
      <rect x="249.51" y="474.97" width="6.54" height="6.54" fill="#f0f0f0"/>
      <rect x="239.13" y="376.3" width="6.54" height="6.54" fill="#f0f0f0"/>
      <rect x="239.13" y="387.26" width="6.54" height="6.54" fill="#f0f0f0"/>
      <rect x="239.13" y="398.22" width="6.54" height="6.54" fill="#f0f0f0"/>
      <rect x="239.13" y="409.18" width="6.54" height="6.54" fill="#f0f0f0"/>
      <rect x="239.13" y="420.16" width="6.54" height="6.54" fill="#f0f0f0"/>
      <rect x="239.13" y="431.12" width="6.54" height="6.54" fill="#f0f0f0"/>
      <rect x="239.13" y="442.08" width="6.54" height="6.54" fill="#f0f0f0"/>
      <rect x="239.13" y="453.04" width="6.54" height="6.54" fill="#f0f0f0"/>
      <rect x="239.13" y="464.01" width="6.54" height="6.54" fill="#f0f0f0"/>
      <path d="M285.96,123.23c.03-8.25-6.64-14.97-14.89-15-1.47,0-2.93,.21-4.34,.63,2.48-17.29-9.53-33.32-26.82-35.8-3.43-.49-6.93-.42-10.34,.22-7.94-13.05-24.95-17.19-37.99-9.25-8.12,4.94-13.14,13.72-13.27,23.22h-.46c-14.07,0-25.48,11.41-25.48,25.48s11.41,25.48,25.48,25.48h93.56c8.12-.21,14.58-6.87,14.55-14.99Z" fill="#f0f0f0"/>
      <path d="M751.87,128.63c0-5.27-4.27-9.54-9.54-9.54h0c-.93,0-1.85,.14-2.74,.41,.14-.97,.22-1.95,.22-2.93,0-11.15-9.04-20.2-20.2-20.2h0c-1.25,0-2.5,.12-3.73,.36-5.07-8.33-15.93-10.97-24.26-5.9-5.18,3.15-8.38,8.75-8.47,14.81h-.29c-8.99-.29-16.51,6.76-16.8,15.75-.29,8.99,6.76,16.51,15.75,16.8,.35,.01,.7,.01,1.05,0h59.74c5.17-.14,9.29-4.38,9.27-9.56Z" fill="#f0f0f0"/>
      <path d="M473.17,223.81c0-3.22-2.62-5.84-5.85-5.85-.57,0-1.14,.09-1.69,.25,.09-.59,.13-1.19,.14-1.8,0-6.83-5.54-12.37-12.37-12.37h-.02c-.76,0-1.52,.07-2.27,.2-3.12-5.1-9.78-6.71-14.88-3.59-3.16,1.93-5.11,5.35-5.17,9.06h-.17c-5.51-.23-10.15,4.05-10.38,9.56-.23,5.51,4.05,10.15,9.56,10.38,.27,.01,.55,.01,.82,0h36.6c3.18-.07,5.71-2.68,5.69-5.86Z" fill="#f0f0f0"/>
      <path d="M91.59,556.14v24.21H774.17v-24.21c.22-3.98-2.84-7.38-6.82-7.6-.11,0-.22,0-.33-.01H98.74c-3.99,.03-7.19,3.29-7.16,7.27,0,.11,0,.22,.01,.33Z" fill="#ebebeb"/>
      <rect x="692.83" y="548.48" width="42.44" height="31.83" fill="#f5f5f5"/>
      <rect x="613.25" y="548.48" width="40.68" height="31.83" fill="#f5f5f5"/>
      <rect x="531.91" y="548.48" width="42.44" height="31.83" fill="#f5f5f5"/>
      <rect x="452.33" y="548.48" width="40.68" height="31.83" fill="#f5f5f5"/>
      <rect x="372.75" y="548.48" width="40.66" height="31.83" fill="#f5f5f5"/>
      <rect x="291.41" y="548.48" width="42.44" height="31.83" fill="#f5f5f5"/>
      <rect x="211.85" y="548.48" width="40.66" height="31.83" fill="#f5f5f5"/>
      <rect x="130.49" y="548.48" width="42.44" height="31.83" fill="#f5f5f5"/>
    </g>
    <g id="c">
      <g id="d">
        <ellipse cx="432.88" cy="637.87" rx="328.5" ry="19.18" fill="#f5f5f5"/>
      </g>
    </g>
    <g id="e">
      <path d="M415.53,533.06h-19.14c-21.26,0-38.51,23.82-38.51,53.22s17.25,53.2,38.51,53.2h19.14c21.26,0,38.49-23.82,38.49-53.2s-17.23-53.22-38.49-53.22Z" fill="#2f2e41" data-secondary="true"/>
      <g opacity=".1">
        <path d="M421.55,536.84c-17.76,0-32.19,22.13-32.19,49.44s14.4,49.44,32.19,49.44,32.19-22.14,32.19-49.44-14.42-49.44-32.19-49.44Z" fill="#fff"/>
      </g>
      <path d="M424.41,559.53c-9.61,0-17.38,11.96-17.38,26.72s7.78,26.72,17.38,26.72,17.38-11.96,17.38-26.72-7.84-26.72-17.38-26.72Z" fill="#2f2e41" data-secondary="true"/>
      <path d="M195.28,533.06h-19.14c-21.26,0-38.51,23.82-38.51,53.22s17.25,53.2,38.51,53.2h19.14c21.26,0,38.49-23.82,38.49-53.2s-17.23-53.22-38.49-53.22Z" fill="#2f2e41" data-secondary="true"/>
      <g opacity=".1">
        <path d="M201.29,536.84c-17.76,0-32.19,22.13-32.19,49.44s14.4,49.44,32.19,49.44,32.19-22.14,32.19-49.44-14.42-49.44-32.19-49.44Z" fill="#fff"/>
      </g>
      <path d="M204.16,559.53c-9.61,0-17.38,11.96-17.38,26.72s7.78,26.72,17.38,26.72,17.38-11.96,17.38-26.72-7.84-26.72-17.38-26.72Z" fill="#2f2e41" data-secondary="true"/>
      <path d="M589.39,528.57l.27,54.77c.04,8.74-7.02,15.85-15.76,15.89-.02,0-.05,0-.07,0h-139.57c-11.75,11.92-27.79,18.64-44.52,18.64h-89.32l-10.17-15.25h-20.33l-2.71,2.56c-7.47,7.06-17.37,11-27.65,11h0c-10.92,0-21.37-4.43-28.95-12.28l-1.22-1.27h-46.49c-7.68,0-14.24-5.52-15.55-13.08l-12.4-71.33,454.45,10.35Z" fill="#2f2e41" data-secondary="true"/>
      <path d="M126,585.45c.94,2.15,3.07,3.54,5.42,3.52h182.98c.32-37.19,22.36-67.19,49.52-67.19s49.13,30,49.52,67.19h83.93c.32-37.19,22.36-67.19,49.52-67.19s47.81,28.16,49.42,63.7c1.96-2.1,3-4.89,2.9-7.76-3.17-89.08-43.51-115.58-43.51-115.58,0,0-1.39-6.4-4.03-15.86-6.47-23.35-20.45-65.31-39.48-75.31-1.52-.76-3.1-1.38-4.73-1.86-38.59-12.01-204.46-10.25-231.3,2.32-28.14,13.2-64.38,78.6-64.38,78.6-20.96,7.72-40.3,19.25-57.06,34-1.87,1.68-3.73,3.44-5.57,5.27-2.74,2.73-5.42,5.62-8,8.69-3.95,4.74-7.35,9.91-10.17,15.4-1.79,3.59-3.38,7.28-4.78,11.05-.88,2.29-1.61,4.42-2.22,6.34-.94,2.84-1.73,5.73-2.37,8.66-8.96,6.15-2.47,30.16,4.37,46.02Z" fill="#fd6a08" data-primary="true"/>
      <path d="M211.87,450.03s13.74,8.83,150.43,2.66c3.22-.14,12.81-1.37,12.81-1.37,0,0,10.05-3.69,32.9-6.57,20.89-2.61,108.13-.49,143.71,1.54-6.47-23.35-20.45-65.31-39.48-75.31-1.52-.76-3.1-1.38-4.73-1.86-38.59-12.01-204.46-10.25-231.3,2.32-28.14,13.2-64.35,78.6-64.35,78.6Z" fill="#2f2e41" data-secondary="true"/>
      <path d="M364.7,533.06h-19.14c-21.26,0-38.51,23.82-38.51,53.22s17.25,53.2,38.51,53.2h19.14c21.26,0,38.49-23.82,38.49-53.2s-17.23-53.22-38.49-53.22Z" fill="#2f2e41" data-secondary="true"/>
      <g opacity=".2">
        <path d="M370.72,536.84c-17.76,0-32.19,22.13-32.19,49.44s14.4,49.44,32.19,49.44,32.19-22.14,32.19-49.44-14.42-49.44-32.19-49.44Z" fill="#fff"/>
      </g>
      <g opacity=".6">
        <path d="M373.58,559.53c-9.61,0-17.38,11.96-17.38,26.72s7.78,26.72,17.38,26.72,17.38-11.96,17.38-26.72-7.84-26.72-17.38-26.72Z" fill="#fff"/>
      </g>
      <path d="M544.29,533.06h-19.14c-21.26,0-38.51,23.82-38.51,53.22s17.25,53.2,38.51,53.2h19.14c21.26,0,38.49-23.82,38.49-53.2s-17.23-53.22-38.49-53.22Z" fill="#2f2e41" data-secondary="true"/>
      <g opacity=".2">
        <path d="M550.31,536.84c-17.76,0-32.19,22.13-32.19,49.44s14.4,49.44,32.19,49.44,32.19-22.14,32.19-49.44-14.42-49.44-32.19-49.44Z" fill="#fff"/>
      </g>
      <g opacity=".6">
        <path d="M553.17,559.53c-9.61,0-17.38,11.96-17.38,26.72s7.78,26.72,17.38,26.72,17.38-11.96,17.38-26.72-7.84-26.72-17.38-26.72Z" fill="#fff"/>
      </g>
      <g opacity=".4">
        <path d="M397.54,372.42l-28.5,77.61s-125.63,6-149.79,0c0,0,27.67-52.61,51.96-67.99,24.3-15.38,126.32-9.62,126.32-9.62Z" fill="#fff"/>
      </g>
      <g opacity=".6">
        <path d="M126.22,524.44c9.52,2.37,20.99-4.71,26.75-17.03,3.83-8.18,4.29-16.81,1.85-23.38-1.87,1.68-3.73,3.44-5.57,5.27-2.74,2.73-5.42,5.62-8,8.69-3.95,4.74-7.35,9.91-10.17,15.4-1.82,3.59-3.44,7.28-4.86,11.05Z" fill="#fff"/>
      </g>
      <g opacity=".4">
        <path d="M385.15,444.74s20.33-71.89,24.97-73.31c4.64-1.42,79.24-2.46,96.66,4.91,17.42,7.37,32.7,65.38,32.7,65.38,0,0-131.47-9.78-154.33,3.02Z" fill="#fff"/>
      </g>
      <g opacity=".6">
        <path d="M266.4,487.47c-10.17,11.05-11.67,26.02-3.54,33.43,8.13,7.4,22.87,4.46,32.95-6.59,10.08-11.05,11.69-25.94,3.56-33.43-8.13-7.49-22.89-4.37-32.97,6.59Z" fill="#fff"/>
      </g>
      <g opacity=".6">
        <path d="M268.17,489.08c-6.78,7.37-7.78,17.37-2.35,22.3s15.25,2.98,22.03-4.39,7.78-17.37,2.35-22.3-15.3-2.98-22.03,4.39Z" fill="#fff"/>
      </g>
      <g opacity=".6">
        <path d="M132.07,514.36l.54,.44c3.9,2.68,10.88-.73,15.6-7.59,4.56-6.61,5.37-14.01,1.95-16.94-2.74,2.73-5.42,5.62-8,8.69-3.92,4.75-7.31,9.91-10.1,15.4Z" fill="#fff"/>
      </g>
      <g opacity=".2">
        <path d="M291.11,550.33l-7.59,38.65h30.92c.32-37.19,22.36-67.19,49.52-67.19s49.13,30,49.52,67.19h83.93c.32-37.19,22.36-67.19,49.52-67.19s47.81,28.16,49.42,63.7c1.96-2.1,3-4.89,2.9-7.76-3.17-89.08-43.51-115.58-43.51-115.58,0,0-16.79-77.12-43.51-91.17-1.52-.76-3.1-1.38-4.73-1.86-30.92-2.41-95.33-6.96-99.5-3.57-5.49,4.46-34.49,90.49-34.49,90.49-60.38,17.7-75.28,83.41-75.28,83.41l-17.13,6.37,10,4.52Z"/>
      </g>
      <g opacity=".3">
        <path d="M244.48,542.75l-15.08-27.28c-1.69-3.11-4.93-5.06-8.47-5.08h-52.52c-3.36,0-6.48,1.73-8.27,4.57l-18.67,29.75c-1.77,2.83-1.99,6.37-.56,9.39l4.69,9.88c1.62,3.41,5.06,5.57,8.83,5.57h68.94c2.53-.02,4.96-1.01,6.78-2.78l12.61-12.32c3.14-3.07,3.84-7.86,1.73-11.71Z"/>
      </g>
      <g opacity=".2">
        <polygon points="236.45 540.01 162.9 540.01 169.43 517.15 222.61 517.15 236.45 540.01"/>
      </g>
      <polygon points="240.24 545.69 150.65 545.69 145.3 548.33 152.89 564.76 227.52 564.76 240.24 549.26 240.24 545.69" fill="#fd6a08" data-primary="true"/>
      <g opacity=".6">
        <path d="M258.8,566.9c0,4.95,3.3,8.96,7.37,8.96s7.37-4.02,7.37-8.96-3.3-8.96-7.37-8.96-7.37,4.02-7.37,8.96Z" fill="#fff"/>
      </g>
      <g opacity=".6">
        <path d="M260.81,567.32c.39,2.04,2.37,3.37,4.4,2.98,2.04-.39,3.37-2.37,2.98-4.4-.34-1.78-1.9-3.06-3.71-3.05-2.23,.25-3.86,2.23-3.68,4.47Z" fill="#fff"/>
      </g>
      <g opacity=".6">
        <path d="M127.46,566.9c.39,2.04,2.37,3.37,4.4,2.98,2.04-.39,3.37-2.37,2.98-4.4-.34-1.78-1.9-3.06-3.71-3.05-2.24,.24-3.87,2.23-3.68,4.47Z" fill="#fff"/>
      </g>
      <g opacity=".6">
        <path d="M125.17,566.9c0,4.95,3.39,8.96,7.37,8.96s7.37-4.02,7.37-8.96-3.29-8.96-7.37-8.96-7.37,4.02-7.37,8.96Z" fill="#fff"/>
      </g>
      <g opacity=".2">
        <path d="M121.61,539.43h20.55l-18.18-8.71c-.94,2.86-1.73,5.77-2.37,8.71Z"/>
      </g>
      <path d="M298.26,588.97h13.11c5.76,.01,10.77-3.94,12.1-9.54,3.39-14.42,13.37-40.66,41.24-46.37,29.36-5.98,39.07,28.97,42.07,46.44,.93,5.47,5.67,9.47,11.22,9.47h3.13s0-85.22-61.43-78.53c-43.34,4.73-55.59,69.29-55.59,69.29l-5.85,9.23Z" fill="#fd6a08" data-primary="true"/>
      <g opacity=".3">
        <path d="M298.26,588.97h13.11c5.76,.01,10.77-3.94,12.1-9.54,3.39-14.42,13.37-40.66,41.24-46.37,29.36-5.98,39.07,28.97,42.07,46.44,.93,5.47,5.67,9.47,11.22,9.47h3.13s0-85.22-61.43-78.53c-43.34,4.73-55.59,69.29-55.59,69.29l-5.85,9.23Z"/>
      </g>
      <path d="M477.85,588.97h13.11c5.76,.01,10.77-3.94,12.1-9.54,3.39-14.42,13.37-40.66,41.24-46.37,29.36-5.98,39.07,28.97,42.07,46.44,.93,5.47,5.67,9.47,11.22,9.47h3.13s0-85.22-61.43-78.53c-43.34,4.73-55.59,69.29-55.59,69.29l-5.85,9.23Z" fill="#fd6a08" data-primary="true"/>
      <g opacity=".3">
        <path d="M477.85,588.97h13.11c5.76,.01,10.77-3.94,12.1-9.54,3.39-14.42,13.37-40.66,41.24-46.37,29.36-5.98,39.07,28.97,42.07,46.44,.93,5.47,5.67,9.47,11.22,9.47h3.13s0-85.22-61.43-78.53c-43.34,4.73-55.59,69.29-55.59,69.29l-5.85,9.23Z"/>
      </g>
      <g opacity=".3">
        <path d="M467.92,370.42s9.39,25.06,12.96,71.9l3.39,1.69s10.96,50.83,0,92.9c0,0,4.83-38.8-3.83-90.96l-2.58-2.05s-4.17-43.36-13.08-73.41l3.13-.07Z"/>
      </g>
      <g opacity=".3">
        <path d="M379.36,450.03c2.83,18.57,3.65,37.39,2.44,56.13,0,0,3.78-29.12,.47-56.13h-2.91Z"/>
      </g>
      <path d="M285.6,457.96s-37.54,21.94-42.19,48.2h-15.45s1.34-25.11,36.53-48.2h21.11Z" fill="#f4f4f4"/>
      <path d="M240.24,456.77s-49.39,15.6-67.46,49.39h-12.28s12.5-31.12,61.21-50.2l18.53,.81Z" fill="#f4f4f4"/>
      <path d="M193.82,481.78h0c7.16-10.26,18.12-17.39,30.49-19.33,.77-.12,1.54-.22,2.31-.31,14.98-1.34,8.93,19.91,8.93,19.91l-37.27,3.54-4.46-3.81Z" fill="#fd6a08" data-primary="true"/>
      <g opacity=".3">
        <polygon points="234.35 481.78 228.45 474.99 202.79 474.99 196.01 481.78 234.35 481.78"/>
      </g>
      <g opacity=".4">
        <path d="M321.81,376.55s-37.6,37.36-43.81,62.03c0,0,4.76-25.09,13.11-39.98-13.3,14.09-23.61,30.73-30.29,48.91,0,0-26.06,1.05-35.58-1.69,0,0,36.26-53.44,52.71-62.16,16.45-8.73,43.86-7.1,43.86-7.1Z" fill="#fff"/>
      </g>
      <path d="M477.35,466.43h0c.24,2.64-1.7,4.97-4.33,5.21-.15,.01-.3,.02-.44,.02h-7.91c-2.65,0-4.79-2.15-4.79-4.79h0c0-2.65,2.15-4.79,4.79-4.79h7.91c2.48,0,4.55,1.89,4.78,4.35Z" fill="#407bff"/>
    </g>
  </g>
  <g>
    <g>
      <polygon points="538.78 478.45 531.77 534.57 486.87 501.13 474.48 453.89 476.08 436.79 476.58 434.49 538.78 478.45" fill="#2f2e41" data-secondary="true"/>
      <polygon points="548.84 471.9 552.58 520.77 531.77 534.57 538.78 478.45 534.57 469.56 548.84 471.9" fill="#2f2e41" data-secondary="true"/>
      <g opacity=".1">
        <polygon points="548.84 471.9 552.58 520.77 531.77 534.57 538.78 478.45 534.57 469.56 548.84 471.9"/>
      </g>
      <path d="M548.84,471.9c-10.77-6.04-22.46-13.36-34.61-22.21-10.07-7.34-19.02-14.7-26.89-21.75,1.01,3.2,2.03,6.39,3.04,9.59l-13.8-3.04,62.2,43.96-4.21-8.89,14.26,2.34Z" fill="#2f2e41" data-secondary="true"/>
      <g opacity=".2">
        <path d="M548.84,471.9c-10.77-6.04-22.46-13.36-34.61-22.21-10.07-7.34-19.02-14.7-26.89-21.75,1.01,3.2,2.03,6.39,3.04,9.59l-13.8-3.04,62.2,43.96-4.21-8.89,14.26,2.34Z"/>
      </g>
    </g>
    <path d="M499.49,437.33c-.14,.59-2.06,8.66-1.73,12.2l-2.98-2.11s2.14-6.34,4.7-10.09c0,0,.01,0,.01,0Z" fill="#2f2e41" data-secondary="true"/>
    <g opacity=".1">
      <path d="M499.49,437.33c-.14,.59-2.06,8.66-1.73,12.2l-2.98-2.11s2.14-6.34,4.7-10.09c0,0,.01,0,.01,0Z"/>
    </g>
    <path d="M708.4,353.54c-.23,0-.43-.17-.46-.4l-1.9-12.47c-.04-.26,.14-.49,.39-.53,.25-.04,.49,.14,.53,.39l1.9,12.47c.04,.26-.14,.49-.39,.53-.02,0-.05,0-.07,0Z" fill="#d1d3d4"/>
    <path d="M706.44,353.54c-.23,0-.43-.17-.46-.4l-1.29-9.44c-.03-.26,.14-.49,.4-.53,.26-.04,.49,.14,.53,.4l1.29,9.44c.03,.26-.14,.49-.4,.53-.02,0-.04,0-.06,0Z" fill="#d1d3d4"/>
    <path d="M719.65,354.17c-.15,0-.29-.07-.38-.19l-11.93-16.6c-.15-.21-.1-.5,.11-.65,.21-.15,.5-.1,.65,.11l11.93,16.6c.15,.21,.1,.5-.11,.65-.08,.06-.18,.09-.27,.09Z" fill="#d1d3d4"/>
    <path d="M633.31,617.98c.39,.39,.77,1,.87,1.93,0,0,2.8-.6,4.15,2.27,.16,.34,.27,.7,.36,1.07,.28,1.16,1.6,5.56,6.18,9.89,1.92,1.82,4.18,3.26,6.6,4.33,2.96,1.32,8.43,4.44,8.43,9.56v2.87c0,.84-.55,1.58-1.35,1.83-2.34,.73-7.63,1.93-15.25,.91,0,0-8.89-.94-13.09-3.27,0,0-3.51-2.1-12.39-3.04,0,0-9.82-.94-10.29-3.04,0,0-.23-1.87,.7-6.31l2.34-9.82,1.4-6.31s.3-2.57,3.42-2.46l-.85,3.16s-.6,3.4,1.53,4.28c.32,.13,.67,.18,1.02,.16,.92-.03,3.1-.29,5.34-1.9,.17-.13,.34-.27,.5-.41,.67-.62,2.79-2.41,3.76-1.44l3.27-3.51s.52-.64,1.35-1.07c.66-.34,1.46-.22,1.98,.31Z" fill="#fd6a08" data-primary="true"/>
    <path d="M633.98,607.27s-1.31,5.51-1.08,10.42c0,0-1.17-.7-2.92,1.05,0,0-4.2,.42-9.61,1.86-.49,.13-.97,.28-1.44,.45-1.11,.41-3.66,1.22-4.38,.5,0,0,3.3-11.12,1.88-18.77l7.47-1.1,10.08,5.6Z" fill="#f9b499"/>
    <path d="M629.98,618.74l-3.27,3.51s-.75-1.34-3.76,1.44c0,0-3.23,2.92-6.87,2.14,0,0-2-.54-1.53-4.28,0,0,.63,.84,4.31-.47,.47-.17,.94-.32,1.41-.44,1.76-.46,6.09-1.53,9.71-1.89Z" fill="#e6e7e8"/>
    <g opacity=".2">
      <path d="M647.47,646.42c-4.1,0-8.73-.55-13.14-2.28-.39-.16-.79-.36-1.22-.62-1.79-1.08-7.99-4.67-12.5-5.26-.38-.07-9.11-1.78-11.83-3.94-.05-.04-.06-.11-.02-.16,.04-.05,.11-.06,.16-.02,2.67,2.12,11.63,3.87,11.72,3.89,4.55,.59,10.78,4.2,12.58,5.29,.42,.25,.81,.45,1.19,.6,11.82,4.66,25.32,.71,25.46,.67,.06-.02,.13,.02,.15,.08s-.02,.13-.08,.15c-.09,.03-5.5,1.61-12.47,1.61Z"/>
    </g>
    <path d="M608.81,503.36s-1.75-2.47-5.96-1.77l-8.65-.7s-5.38-1.4-9.12,.23c0,0-4.44,.94-3.98,10.99,0,0,1.17,12.39,.94,21.28,0,0-.47,10.99,.47,15.67,0,0,2.57,14.5,11.46,18.71,0,0,3.04,.94,5.14-.23l2.57-1.4s2.1-1.17,3.27-4.91c0,0,1.85-5.34,2.08-11.6,.04-1.12,.2-2.22,.45-3.31,.56-2.45,1.7-6.72,3.57-10.66,.46-.97,1.04-1.89,1.67-2.75,1.01-1.37,2.65-3.9,2.48-5.77-.05-.59,.11-1.18,.46-1.66l.11-.16c.37-.52,.27-1.27-.26-1.61-.22-.14-.51-.22-.89-.15l-8.5-3.02-3.04-8.89,2.81-7.01,2.81-.7,.12-.57Z" fill="#fd6a08" data-primary="true"/>
    <g opacity=".2">
      <path d="M601.48,566.25c-8.51,0-12.96-14.44-13.01-14.58-2.01-5.03-1.16-13.98-.47-18.86,.34-2.45,.54-4.93,.59-7.37,.12-6.5,.12-15.34,.12-15.42,0-6.77,4.57-9.34,4.61-9.37,.06-.03,.13,0,.16,.05,.03,.06,.01,.13-.05,.16-.04,.02-4.49,2.54-4.49,9.16,0,.09,0,8.93-.12,15.43-.04,2.45-.24,4.94-.59,7.4-.68,4.86-1.53,13.76,.46,18.75,.05,.15,4.45,14.43,12.78,14.43,.07,0,.13,0,.2,0,.06,0,.12,.05,.12,.11,0,.06-.05,.12-.11,.12-.07,0-.14,0-.2,0Z"/>
    </g>
    <path d="M615.83,522.28l-2.22,2.23s-2.65,1.42-8.13-.66c-.84-.32-1.58-.84-2.16-1.53-1.75-2.09-5.18-7.08-3.04-12.07,0,0,.94-1.87,3.04-3.27,0,0,1.17-.7,1.64-1.87l.94-1.64s.94-.7,1.64,0l5.38,11.93,2.92,6.89Z" fill="#e6e7e8"/>
    <path d="M617.47,500.59s-2.93,2.41-9.94,2.88c0,0-4.21,3.98-1.64,10.52,0,0,4.68,8.65,9.12,8.42,0,0,.59,.15,.95-.37,.33-.47,.7-.9,1.18-1.23,1.11-.76,2.96-1.99,4.19-2.61l-1.64-16.6-2.22-1.01Z" fill="#f9b499"/>
    <path d="M557.27,415.2s-1.89,1.52-12.18-5.49l3.62-2.46s4.21,3.04,8.55,7.95Z" fill="#fd6a08" data-primary="true"/>
    <g opacity=".2">
      <path d="M557.27,415.2s-1.89,1.52-12.18-5.49l3.62-2.46s4.21,3.04,8.55,7.95Z"/>
    </g>
    <path d="M598.64,387.02v3.51s-.94,3.98-.94,7.01c0,0-1.17,.23-1.4,3.04,0,0-7.72,19.41,3.27,39.98,0,0,5.85,11.22,27.83,25.02l.23,18.47s0,9.82-1.4,11.69l-8.65,3.98s-3.41,15.46,6.13,21.5c.33,.21,.55,.56,.6,.95s.03,.86-.19,1.41c0,0-.94,2.34,0,3.98,0,0,.23,.47-.47,.7,0,0-2.1,1.17-.7,3.51,0,0,.7,1.4-.23,2.81,0,0-1.4,.7-1.17,5.38,0,0-.94,1.64-1.4,6.31l-2.34,13.8s-1.17,12.86-.94,23.15c0,0-.23,14.26-1.87,18.94,0,0,10.99,5.61,20.58,5.14l2.81-14.26s2.34-5.14,2.1-10.76l4.44-18.94s5.61-23.85,3.98-26.89c0,0-.23-.7,.7-1.17,0,0,.94-.23,.7-1.4,0,0,0-.7-1.17-1.17,0,0-.47-.47-.08-.87,.13-.13,.25-.27,.31-.45,.04-.12,.07-.26,.07-.42,0-.27,.12-.53,.31-.72,.41-.41,1.06-1.15,1.47-2.01,.2-.42,.45-.81,.73-1.17,.57-.71,1.29-2.1,0-3.72,0,0,.23-.94,.23-2.57v-3.04s.7-1.17,.94-3.51c0,0,.23-1.87,.7-3.27l17.54-3.98s24.08-3.98,24.32-16.6c0,0,1.87-10.76-10.29-22.68l-18.24-18,1.64-29.23-11.69-33.44-25.25-9.59-33.44,6.31,.23,3.27Z" fill="#2f2e41" data-secondary="true"/>
    <path d="M707.61,330.9s4.56,2.69,4.91-2.81c0,0,.1-6.05-.18-9.34,0,0-1.34,4.54-4.73,12.14Z" fill="#fd6a08" data-primary="true"/>
    <g opacity=".2">
      <path d="M707.61,330.9s4.56,2.69,4.91-2.81c0,0,.1-6.05-.18-9.34,0,0-1.34,4.54-4.73,12.14Z"/>
    </g>
    <path d="M611.39,280.74s-.35,15.55-7.6,19.76c0,0,19.41,11.22,26.42,0,0,0-1.24-1.05-2.41-2.72-1.58-2.26-2.15-5.08-1.64-7.79l.38-2.04s-9.56,1.15-15.15-7.21Z" fill="#f9b499"/>
    <path d="M625.91,291.99l2.55-5.17-14.03-3.27s.23,4.68,11.48,8.44Z" fill="#f7a48b"/>
    <path d="M720,253.27l-2.1-3.74s-3.07-.45-2.47,4.34l2.24,1.51,2.34-2.1Z" fill="#f7a48b"/>
    <path d="M623.11,288c1.16,.11,2.31,.08,3.42-.05,7.2-.9,13.05-6.7,13.74-14.22l.51-5.58,1.44-15.65c.08-.9,.09-1.79,.02-2.67,0-.13-.02-.25-.03-.38,0-.1-.02-.19-.03-.28-.51-4.26-2.97-7.82-6.25-10.37,0,0,.23-.24,.22-.24-.17-.12-.5,.05-.5,.05-8.12-3.43-15.16-1.57-20.56,1.54-2.38,2.49-3.97,5.76-4.3,9.46l-1.95,21.23c-.8,8.68,5.59,16.36,14.27,17.16Z" fill="#f9b499"/>
    <path d="M590.46,288.11s-4.79-5.73,2.34-9.35c0,0-4.68-9.35,2.34-17.77l10.41-12.77s3.64-4.42,9.55-7.83c5.34-3.08,12.52-5.16,20.53-1.88,.18,.07,.36,.17,.52,.28,0,0,0,0,0,0,0,0,0,0,0,0,1.12,.81,5.32,4.01,6.02,10.37,.01,.09,.02,.19,.03,.28,.01,.13,.02,.25,.03,.38,.07,.87,.06,1.77-.02,2.67l-1.44,15.65s1.24,4.11-.23,9.11c0,0,26.36-24.46,17.94-39.89,0,0-5.38-10.76-26.25-6.71-1.74,.34-3.59,.78-5.55,1.34l-26.17,6.65c-1.37,.35-2.7,.82-3.98,1.42-2.17,1.02-5.39,2.81-8.44,5.56-3.58,3.23-6.9,7.79-7.95,13.96,0,0-5.14,21.51,10.29,28.53Z" fill="#fd6a08" data-primary="true"/>
    <g opacity=".2">
      <path d="M590.46,288.11s-4.79-5.73,2.34-9.35c0,0-4.68-9.35,2.34-17.77l10.41-12.77s3.64-4.42,9.55-7.83c5.34-3.08,12.52-5.16,20.53-1.88,.18,.07,.36,.17,.52,.28,0,0,0,0,0,0,0,0,0,0,0,0,1.12,.81,5.32,4.01,6.02,10.37,.01,.09,.02,.19,.03,.28,.01,.13,.02,.25,.03,.38,.07,.87,.06,1.77-.02,2.67l-1.44,15.65s1.24,4.11-.23,9.11c0,0,26.36-24.46,17.94-39.89,0,0-5.38-10.76-26.25-6.71-1.74,.34-3.59,.78-5.55,1.34l-26.17,6.65c-1.37,.35-2.7,.82-3.98,1.42-2.17,1.02-5.39,2.81-8.44,5.56-3.58,3.23-6.9,7.79-7.95,13.96,0,0-5.14,21.51,10.29,28.53Z" fill="#fff"/>
    </g>
    <path d="M588.12,245.62c3.04-2.75,6.27-4.54,8.44-5.56,1.28-.6,2.61-1.07,3.98-1.42l26.17-6.65c1.96-.56,3.81-1,5.55-1.34l-2.04-2.87s-6.31-8.65-21.04-4.68c0,0-17.28,3.26-21.05,22.52Z" fill="#fd6a08" data-primary="true"/>
    <path d="M630.91,230.82s-7.25-2.57-11.46,.7c0,0-4.52-2.04-12.67,5.53,0,0,18.98-4.83,24.12-6.23Z" fill="#2f2e41" data-secondary="true"/>
    <path d="M707.61,330.9s4.21-7.72,6.78-20.11c0,0,2.1-12.39,4.68-20.34,0,0,2.57-8.65,3.27-11.93,0,0,1.87-8.65,5.38-14.97,0,0,2.81-3.74-.47-6.08l-7.25-4.21s-2.57-1.64-3.74,.7c0,0-1.64-.47-2.81,.47,0,0-1.4,.94-.94,2.57,0,0-1.4-.23-2.34,.94,0,0-.94,1.4,0,2.57,0,0-1.87,.94-.7,3.04l.94,1.87s.94,1.87,2.34,2.1l-1.87,7.95s-.7,3.27,.7,5.61c0,0-.94,7.25-3.27,13.33,0,0-3.51,10.29-9.35,19.17l-.58,1.02c-.32,.56-.55,1.16-.7,1.78,0,.03-.01,.05-.02,.08-.86,3.94,.61,8.03,3.72,10.6,1.48,1.22,3.68,2.8,6.23,3.82Z" fill="#f9b499"/>
    <path d="M535.04,401.75c.13,.02,.27,.04,.4,.06,4.58,.69,9.18,3.18,12.96,5.83,4.97,3.47,8.55,7.22,8.85,7.54,0,0,.03,0,.04,0l9.57-16.11s11.68-12.51,14.25-23.5c0,0,3.27-6.08,2.57-13.33,0,0,.94-3.74,.47-6.08l.94-2.1s1.48,8.68,4.93,16.53c1.35,3.08,2.55,6.22,3.65,9.4l1.47,4.24s.47,2.81,3.51,2.81c0,0,0-1.4,1.87-1.64l20.9-.77c2.15-.08,4.29-.32,6.4-.74,1.41-.28,3.46-.49,5.9-.12l23.38,3.27v-41.86s4.44,2.57,11.46,3.04c0,0,7.01,1.4,10.05,1.87,0,0,6.55,.94,10.76-.47,0,0,6.34,2.17,11.37,.3,1.17-.44,2.16-1.27,2.82-2.33,1.23-1.98,3.56-6.08,5.49-11.46,.3-.83,.75-1.59,1.35-2.24l1.26-1.38c.29-.31,.52-.68,.66-1.08,.29-.81,.66-2.22,.19-3.32,0,0,0,5.14-4.91,2.81,0,0-13.79-5.21-9.23-16.28l-6.43,11.14-1.87-1.64s-2.1-2.1-5.14-.94c0,0-.94-1.87-4.68-3.27,0,0-1.4-1.87-4.21-2.81l-1.17-.7s-1.17-2.57-5.61-3.51c0,0-.47-1.17-.7-2.81,0,0,0-3.04-4.91-5.61l-3.98-1.87s-1.4-3.04-9.59-3.51l-19.88,1.4s-6.31,11.22-26.42,0l-16.08-6.39s-2.62,2.42-9.64,5.22c0,0-11.69,3.98-11.69,11.93,0,0-.79,11-2.72,18.6-.44,1.71-.79,3.44-1.04,5.2-.63,4.5-1.68,13.07-1.84,21.39-.03,1.44-.11,2.87-.26,4.3l-.96,8.96c-.11,1.04-.81,1.92-1.8,2.25-1.32,.43-3.09,1.33-3.78,3.13,0,0-.28,.56-.51,2.53-.13,1.1-.89,2.02-1.95,2.34s-2.41,1.14-3.38,3.07l-3,6.16c-.72,1.48-1.75,2.8-3.05,3.83-.67,.52-1.44,1.35-2.14,2.64l-4.91,6.08Z" fill="#fd6a08" data-primary="true"/>
    <g opacity=".2">
      <path d="M626.24,495.87s-.08-.02-.1-.06c-.03-.06,0-.13,.05-.16l4.68-2.34c5.55-3.47,15.58-7.45,15.68-7.49,2.78-1.19,5.94-1.89,6.8-2.06l-1.08-.96c-.44-.4-1.03-.59-1.64-.58-1.04,.04-1.49-.52-1.68-.99-.19-.47-.49-.85-.85-1.1l-20.75-14.44c-.05-.04-.07-.11-.03-.16,.04-.05,.11-.07,.16-.03l20.75,14.44c.41,.28,.73,.7,.94,1.21,.24,.58,.73,.86,1.46,.84,.68-.02,1.31,.21,1.8,.64l1.25,1.12s.05,.08,.04,.12c-.01,.04-.05,.08-.09,.08-.04,0-3.77,.72-6.99,2.1-.1,.04-10.11,4.01-15.65,7.47l-4.69,2.34s-.03,.01-.05,.01Z"/>
    </g>
    <g opacity=".2">
      <path d="M667.16,449.8s-.06-.01-.08-.03l-22.21-21.04c-.07-.08-5.87-6.75-9.97-6.75-.06,0-.12-.05-.12-.12s.05-.12,.12-.12c4.21,0,9.9,6.54,10.14,6.82l22.21,21.04s.05,.12,0,.17c-.02,.02-.05,.04-.08,.04Z"/>
    </g>
    <g opacity=".2">
      <path d="M651.96,435.07s-.04,0-.06-.02c-.06-.03-.07-.1-.04-.16,1.22-2.09,.16-7.61-.35-9.89-.27-1.2-.42-2.41-.45-3.59-.17-6.95,.78-14.69,.79-14.77,1.15-8.54-.34-20.28-.35-20.4,0-.06,.04-.12,.1-.13,.07-.02,.12,.04,.13,.1,.02,.12,1.51,11.89,.35,20.46,0,.08-.96,7.8-.79,14.73,.03,1.16,.18,2.36,.45,3.55,.64,2.86,1.54,7.98,.33,10.06-.02,.04-.06,.06-.1,.06Z"/>
    </g>
    <polygon points="700.39 352.85 657.57 349.61 659.91 421.16 685.63 423.26 700.39 352.85" fill="#f1f2f2"/>
    <polygon points="649.85 423.96 659.91 421.16 657.54 350.92 654.06 350.78 649.85 423.96" fill="#e6e7e8"/>
    <polygon points="649.85 423.96 667.86 425.13 668.2 421.83 659.91 421.16 649.85 423.96" fill="#d1d3d4"/>
    <path d="M679.31,353.11c-.06,0-.12-.01-.18-.04-.24-.1-.35-.37-.25-.61l9.35-22.21c.24-.56,1.49-3.33,2.72-3.69,.25-.08,.51,.07,.58,.32,.07,.25-.07,.51-.32,.58-.54,.16-1.52,1.76-2.12,3.16l-9.35,22.21c-.08,.18-.25,.29-.43,.29Z" fill="#d1d3d4"/>
    <g opacity=".2">
      <path d="M624.7,521.49c-.3,0-.64-.04-1.02-.16-.06-.02-.1-.08-.08-.15,.02-.06,.08-.1,.15-.08,1.37,.43,2.14-.17,2.18-.2l3.05-1.88c1.83-.69,2.31-1.15,2.32-1.15,6.98-4.19,22.35-7.02,22.51-7.05,.07,0,.12,.03,.14,.09,.01,.06-.03,.12-.09,.14-.15,.03-15.49,2.85-22.41,7,0,0-.48,.48-2.36,1.18l-3.02,1.86s-.5,.39-1.36,.39Z"/>
    </g>
    <g>
      <polygon points="528.03 474.94 519.66 472.18 522.42 476.81 505.58 555.38 521.95 547.66 528.03 474.94" fill="#fd6a08" data-primary="true"/>
      <g opacity=".1">
        <polygon points="528.03 474.94 519.66 472.18 522.42 476.81 505.58 555.38 521.95 547.66 528.03 474.94"/>
      </g>
      <polygon points="505.58 555.38 462.55 526.15 497.16 461.14 522.42 476.81 505.58 555.38" fill="#fd6a08" data-primary="true"/>
      <polygon points="528.03 474.94 517.27 467.92 499.97 457.17 505.35 463.71 497.16 461.14 522.42 476.81 519.66 472.18 528.03 474.94" fill="#fd6a08" data-primary="true"/>
      <g opacity=".2">
        <polygon points="528.03 474.94 517.27 467.92 499.97 457.17 505.35 463.71 497.16 461.14 522.42 476.81 519.66 472.18 528.03 474.94"/>
      </g>
    </g>
    <path d="M509.55,459.74c-.1,0-.19-.03-.28-.09-.21-.15-.25-.44-.1-.65,4.35-5.95,6.46-11.98,6.48-12.04,3.56-8.24-2.18-13.08-2.43-13.28-.2-.16-.23-.46-.07-.66,.16-.2,.46-.23,.66-.07,.07,.05,6.54,5.47,2.71,14.34,0,.03-2.17,6.18-6.6,12.25-.09,.13-.23,.19-.38,.19Z" fill="#d1d3d4"/>
    <path d="M509.55,459.04c-.09,0-.18-.03-.26-.08-.21-.14-.27-.43-.13-.65,3.18-4.78,5.06-13.77,5.08-13.86,1.53-7.21-.92-8.92-.95-8.93-.21-.14-.28-.43-.14-.64,.14-.22,.42-.28,.64-.15,.13,.08,3.06,1.97,1.37,9.92-.08,.37-1.93,9.26-5.21,14.19-.09,.14-.24,.21-.39,.21Z" fill="#d1d3d4"/>
    <path d="M504.99,435.07l.1,4.48c0,.21,.03,.42,.07,.63l.51,3.08,2.91,2.25,1.19-7.5s-.22-.47-.22-1.64c0,0-2.34,.23-3.51-1.17,0,0-.38-.05-1.05-.12Z" fill="#2f2e41" data-secondary="true"/>
    <polygon points="523.58 451.32 528.38 459.47 524.75 457.12 522.3 449.1 523.58 451.32" fill="#2f2e41" data-secondary="true"/>
    <g opacity=".1">
      <polygon points="523.58 451.32 528.38 459.47 524.75 457.12 522.3 449.1 523.58 451.32"/>
    </g>
    <path d="M518.67,464.18s2.03-18.22-1.44-23.49c0,0-.43-5.04-4.17-7.61l.07,3.13s2.27-.09,2.04,8.8l-1.17,15.9,4.68,3.27Z" fill="#fd6a08" data-primary="true"/>
    <path d="M503.43,431.79l-3.94,5.54s-.92,3.64-1.16,5.66l5.61-9.67-.51-1.53Z" fill="#2f2e41" data-secondary="true"/>
    <path d="M727.02,261.1s-.08-.02-.1-.06c-.68-1.13-3.2-2.52-3.23-2.53l-7.49-4.44c-.06-.03-.07-.1-.04-.16,.03-.06,.11-.07,.16-.04l7.48,4.44c.1,.06,2.6,1.43,3.31,2.61,.03,.06,.02,.13-.04,.16-.02,.01-.04,.02-.06,.02Z" fill="#f7a48b"/>
    <path d="M723.04,261.8s-.04,0-.05-.01l-5.14-2.57s-3.97-2.09-5.33-2.09c-.06,0-.12-.05-.12-.12s.05-.12,.12-.12c1.42,0,5.27,2.03,5.43,2.12l5.14,2.57c.06,.03,.08,.1,.05,.16-.02,.04-.06,.06-.1,.06Z" fill="#f7a48b"/>
    <path d="M718.05,262.06c-.55,0-1.41-.07-2.23-.44-.56-.25-1.22-.53-1.93-.72-1.83-.5-3.13-.6-3.65-.28-.06,.03-.13,.02-.16-.04-.03-.06-.02-.13,.04-.16,.74-.45,2.49-.1,3.83,.26,.72,.2,1.4,.48,1.96,.73,1.25,.56,2.65,.4,2.67,.39,.06,0,.12,.04,.13,.1,0,.06-.04,.12-.1,.13-.02,0-.23,.03-.56,.03Z" fill="#f7a48b"/>
    <path d="M714.39,268.12c-1.2,0-1.7-.48-1.72-.5-.05-.05-.05-.12,0-.17,.04-.05,.12-.05,.16,0h0s.46,.43,1.55,.43c.06,0,.12,.05,.12,.12s-.05,.12-.12,.12Z" fill="#f7a48b"/>
    <path d="M712.9,267.71s-.06-.01-.09-.04c-.72-.79-1.03-2.27-1.1-2.62-.25-.08-1.11-.4-2.31-1.4-.05-.04-.06-.12-.02-.16s.12-.06,.16-.02c1.36,1.13,2.28,1.38,2.29,1.38,.05,.01,.08,.05,.09,.09,0,.02,.29,1.74,1.05,2.58,.04,.05,.04,.12,0,.17-.02,.02-.05,.03-.08,.03Z" fill="#f7a48b"/>
    <path d="M711.82,265.08s-.06-.01-.08-.03c-.05-.05-.05-.12,0-.17,.48-.48,1.18-.72,1.21-.73,.06-.02,.13,.01,.15,.07,.02,.06-.01,.13-.07,.15,0,0-.68,.23-1.12,.67-.02,.02-.05,.03-.08,.03Z" fill="#f7a48b"/>
    <path d="M711.15,266.6c-.06,0-.11-.04-.12-.1,0-.06,.03-.12,.1-.13,.67-.1,.85-.29,.86-.29,.04-.05,.12-.05,.16,0,.05,.04,.05,.11,.01,.16-.02,.03-.24,.26-1,.37,0,0-.01,0-.02,0Z" fill="#f7a48b"/>
    <path d="M626.15,290.02l.38-2.06h0c7.2-.91,13.05-6.71,13.74-14.23l.51-5.58c.19,.76,1.23,4.18-.23,9.11-.86,2.9-.44,6.04,.85,8.78,.9,1.91,2.36,4.01,4.7,6.04,0,0,1.39,1.39,2.59,3.15,.68,1,1.51,1.88,2.4,2.71,.57,.53,1.13,1.42,1.24,2.91,.11,1.58,.43,3.13,1,4.61,.09,.22,.17,.45,.23,.67,.31,1,.74,1.95,1.27,2.86,.98,1.68,2.24,4.7,1.79,8.58,0,0-.23,5.85-4.91,7.95l-.04-.04c-5.59,3.08-13.17-2.65-13.17-2.65,2.49-1.02,4.53-2.34,6.08-3.57,.14-.23,.39-.48,.82-.75h0c1.33-1.33,1.08-3.54-.51-4.56s-3.54-2.57-4.87-4.56c0,0-.5-.35-1.09-.96-2.22-2.32-4.57-4.5-7.08-6.5-1.35-1.08-2.74-2.37-3.84-3.81-1.75-2.29-2.39-5.25-1.87-8.09Z" fill="#2f2e41" data-secondary="true"/>
    <path d="M637.16,239.3c-.81-.65-1.74-1.14-2.72-1.49-7.02-2.44-13.54-.65-18.41,1.84-4.06,2.08-7.6,5.03-10.49,8.56l-10.41,12.77c-7.01,8.65-2.34,17.77-2.34,17.77-7.25,3.51-2.34,9.35-2.34,9.35-3.74,2.34-2.81,7.95-2.81,7.95l.7,6.78c-1.4,6.78,4.91,11.93,4.91,11.93,13.09,7.72,20.11-2.34,20.11-2.34-10.52-4.21-9.59-11.93-9.59-11.93,11.22-7.25,7.48-35.54,7.48-35.54,.05-3.79,.39-6.97,.9-9.63,1.34-7.1,6.75-12.76,13.76-14.53,.13-.03,.27-.07,.4-.1,1.54-.39,3.14-.45,4.71-.17h0c10.52,2.1,11.2,11.97,11.2,11.97,0,0,1.6-7.84-5.07-13.2Z" fill="#2f2e41" data-secondary="true"/>
    <g opacity=".2">
      <path d="M585.08,354.17c-.06,0-.11-.05-.12-.11-.02-.22-1.72-22.02,1.52-33.6,.02-.06,.08-.1,.14-.08,.06,.02,.1,.08,.08,.14-3.23,11.54-1.53,33.29-1.52,33.51,0,.06-.04,.12-.11,.13h0Z"/>
    </g>
    <g opacity=".2">
      <path d="M657.1,345.28c-.06,0-.11-.05-.12-.11l-.7-20.81c0-.06,.05-.12,.11-.12,.05,0,.12,.05,.12,.11l.7,20.81c0,.06-.05,.12-.11,.12h0Z"/>
    </g>
    <path d="M504.19,424.4c1.16,1.13,1.16,4.01,1.16,4.01,3.04-.23,3.04-5.61,3.04-5.61l1.33-.95c.12-.08,.28,.01,.26,.16l-.42,3.36,1.17,2.34c6.55,2.1,6.31,4.68,6.31,4.68,.23,1.64,1.64,2.57,1.64,2.57,1.78,1.25,2.07,2.22,2.11,2.62,0,.07,.09,.1,.14,.05l2.66-2.66c1.4-1.4,3.51-7.25,3.51-7.25,1.64-4.21,2.57-5.38,2.57-5.38,2.1-2.81,6.55-6.55,6.55-6.55l12.19-8.12v-.03c-3.78-2.65-8.38-5.14-12.95-5.83l-7.65,6.72c-2.1,1.4-6.08,3.27-6.08,3.27l-3.98,1.64c-2.81,1.4-6.31,2.1-6.31,2.1-2.81,.47-3.98,1.87-3.98,1.87l-3.51,3.74c-.74,.89-.54,1.88-.29,2.48,.12,.29,.32,.54,.54,.76Z" fill="#f9b499"/>
    <g>
      <polygon points="676.27 437.53 737.77 439.63 744.09 354.52 664.12 351.48 676.27 437.53" fill="#fd6a08" data-primary="true"/>
      <polygon points="667.29 446.34 676.27 437.53 664.38 353.76 660.84 354.05 667.29 446.34" fill="#fd6a08" data-primary="true"/>
      <g opacity=".2">
        <polygon points="667.29 446.34 676.27 437.53 664.38 353.76 660.84 354.05 667.29 446.34" fill="#fff"/>
      </g>
      <polygon points="737.77 439.63 727.95 448.98 667.29 446.34 676.27 437.53 737.77 439.63" fill="#fd6a08" data-primary="true"/>
      <g opacity=".1">
        <polygon points="737.77 439.63 727.95 448.98 667.29 446.34 676.27 437.53 737.77 439.63" fill="#fff"/>
      </g>
    </g>
    <path d="M695.14,353.75c-.23,0-.43-.17-.46-.4l-3.3-23.35c-.04-.26,.14-.49,.4-.53,.26-.04,.49,.14,.53,.4l3.3,23.35c.04,.26-.14,.49-.4,.53-.02,0-.04,0-.07,0Z" fill="#d1d3d4"/>
    <g>
      <polygon points="712.52 430.51 703.4 443.61 680.25 358.73 684.75 357.27 712.52 430.51" fill="#e6e7e8"/>
      <g>
        <polygon points="772.14 427.71 762.09 441.27 703.4 443.61 712.52 430.51 772.14 427.71" fill="#d1d3d4"/>
        <path d="M703.4,443.73s-.09-.03-.11-.07c-.03-.06,0-.13,.06-.16l22.21-9.82s.03,0,.04,0l28.06-1.4s.07,.01,.09,.04l8.42,8.89s.04,.12,0,.17c-.05,.05-.12,.04-.17,0l-8.38-8.85-27.98,1.4-22.19,9.81s-.03,.01-.05,.01Z" fill="#f1f2f2"/>
        <path d="M718.57,437.07s-.06-.01-.09-.04l-6.06-6.44s-.04-.12,0-.17,.12-.04,.17,0l6.06,6.44s.04,.12,0,.17c-.02,.02-.05,.03-.08,.03Z" fill="#f1f2f2"/>
        <path d="M756.48,435.31s-.09-.03-.11-.07c-.03-.06,0-.13,.06-.16l15.67-7.48c.06-.03,.13,0,.16,.06,.03,.06,0,.13-.06,.16l-15.67,7.48s-.03,.01-.05,.01Z" fill="#f1f2f2"/>
        <path d="M703.4,443.73s-.03,0-.04,0c-.06-.02-.1-.09-.08-.15l5.61-16.6s.05-.07,.09-.08c.04,0,.08,0,.11,.03l3.51,3.51s.05,.12,0,.17-.12,.05-.17,0l-3.37-3.37-5.55,16.42s-.06,.08-.11,.08Z" fill="#d1d3d4"/>
        <path d="M709.01,427.12s-.1-.03-.11-.08l-21.13-61.21c-.02-.06,.01-.13,.07-.15,.06-.02,.13,.01,.15,.07l21.13,61.21c.02,.06-.01,.13-.07,.15-.01,0-.03,0-.04,0Z" fill="#d1d3d4"/>
        <polygon points="741.28 352.88 683.29 353.35 712.52 430.51 772.14 427.71 741.28 352.88" fill="#f1f2f2"/>
      </g>
    </g>
    <path d="M728.41,356.39c-.12,0-.24-.04-.33-.14-.23-.23-15.35-17.89-18.38-21.42-.17-.2-.15-.49,.05-.66,.2-.17,.49-.15,.66,.05,6.2,7.24,18.02,21.03,18.34,21.38,.17,.19,.17,.48-.02,.66-.09,.09-.21,.13-.33,.13Z" fill="#d1d3d4"/>
    <path d="M700.13,356.39c-.2,0-.38-.13-.44-.32l-6.31-19.41c-3.25-8.36-1.98-10.88-1.83-11.14,.13-.22,.42-.29,.64-.16,.22,.13,.29,.41,.17,.63-.03,.06-1.17,2.46,1.9,10.35l6.32,19.43c.08,.25-.05,.51-.3,.59-.05,.02-.1,.02-.14,.02Z" fill="#d1d3d4"/>
    <path d="M680.02,357.11c-.06,0-.11,0-.17-.03-.25-.09-.38-.37-.29-.62l10.37-27.94c.07-.22,.76-2.33,1.58-3.01,.21-.17,.51-.14,.68,.07,.17,.21,.14,.51-.07,.68-.46,.38-1.03,1.78-1.28,2.58l-10.38,27.97c-.07,.2-.26,.32-.45,.32Z" fill="#d1d3d4"/>
    <g>
      <path d="M523.58,467.69l-7.06-3.87s-.05,.02-.03,.04l4.99,4.53-46.06-32.03,12.63,7.95-9.12-7.95,44.66,31.33Z" fill="#d1d3d4"/>
      <path d="M523.58,467.69l-17.54,69.91-19.88,3.27,35.31-72.49-4.99-4.53s0-.06,.03-.04l7.06,3.87Z" fill="#e6e7e8"/>
      <polygon points="521.48 468.39 486.17 540.88 440.57 508.38 475.42 436.36 521.48 468.39" fill="#f1f2f2"/>
    </g>
    <path d="M491.55,449.45c-.06,0-.13-.01-.19-.04-.24-.1-.34-.38-.24-.62l4.68-10.52c3.56-7.35,7.5-8.86,7.67-8.92,.24-.09,.51,.04,.6,.28,.09,.24-.04,.51-.28,.6-.07,.03-3.79,1.52-7.14,8.44l-4.67,10.51c-.08,.17-.25,.28-.43,.28Z" fill="#d1d3d4"/>
    <path d="M498.58,450.47c-.05,0-.11,0-.16-.03-.24-.09-.37-.36-.28-.6l5.58-15.04c.09-.24,.36-.37,.6-.28,.24,.09,.37,.36,.28,.6l-5.58,15.04c-.07,.19-.25,.31-.44,.31Z" fill="#fd6a08" data-primary="true"/>
    <path d="M495.4,448.4c-.08,0-.16-.02-.23-.06-.22-.13-.3-.42-.17-.64l8.12-13.94c.13-.22,.42-.3,.64-.17,.22,.13,.3,.42,.17,.64l-8.12,13.94c-.09,.15-.24,.23-.4,.23Z" fill="#fd6a08" data-primary="true"/>
    <path d="M510.37,427.59s6.31,1.64,6.66,4.79c0,0,.23,1.64,1.64,2.57,0,0,1.99,.82,2.46,3.39,0,0,.12,8.77,2.46,12.98l-6.35-10.63s-.66-5.04-4.17-7.61l-2.6-1.56s-.56-1.83-.09-3.93Z" fill="#2f2e41" data-secondary="true"/>
    <path d="M514.46,441.5s-2.34-.23-2.34-2.34c0,0-2.81,.23-2.57-2.81,0,0-2.34,.23-3.51-1.17,0,0-1.87,.94-2.57-1.64,0,0-.23-3.04,.47-4.68,0,0,.7-1.4,1.64-2.1l2.55-2.06,1.46-2.37c.27-.44,.88-.55,1.27-.2,.58,.52,1.12,1.48,.4,3.11-.26,.6-.43,1.24-.53,1.89-.18,1.14-.37,2.82-.23,4.08l2.25-3.68c.23-.37,.66-.56,1.08-.46,.79,.18,1.8,.82,.87,2.97l-1.17,3.27v3.04s1.4,0,.94,5.14Z" fill="#f7a48b"/>
    <path d="M509.55,436.47s0,0-.01,0c-.06,0-.11-.06-.1-.13l.23-2.34c.23-1.64,.7-2.83,.71-2.84,.02-.06,.09-.09,.15-.06,.06,.02,.09,.09,.06,.15,0,.01-.47,1.18-.69,2.78l-.23,2.33c0,.06-.06,.1-.12,.1Z" fill="#f48f78"/>
    <path d="M512.13,439.28c-.06,0-.11-.05-.12-.11l-.23-2.57s0-.03,0-.04c.06-.24,.19-.4,.39-.5,.54-.25,1.38,.17,1.41,.19,.06,.03,.08,.1,.05,.16-.03,.06-.1,.08-.16,.05,0,0-.78-.38-1.21-.18-.13,.06-.21,.16-.26,.32l.23,2.55c0,.06-.04,.12-.11,.13,0,0,0,0-.01,0Z" fill="#f48f78"/>
    <path d="M506.05,435.3c-.06,0-.12-.05-.12-.12v-2.55c0-1.08,.08-2.16,.25-3.21v-.04c.13-.8,.38-1.56,.73-2.28l1.37-2.73c.03-.06,.1-.08,.16-.05s.08,.1,.05,.16l-1.37,2.73c-.35,.69-.58,1.44-.71,2.21v.04c-.17,1.04-.25,2.11-.25,3.17v2.55c0,.06-.05,.12-.12,.12Z" fill="#f48f78"/>
    <path d="M507.45,417.42l-3.51,3.74c-.74,.89-.54,1.88-.29,2.48,.12,.29,.32,.54,.54,.76,1.16,1.13,1.16,4.01,1.16,4.01,3.04-.23,3.04-5.61,3.04-5.61" fill="#f9b499"/>
    <ellipse cx="610.1" cy="265.54" rx="3.62" ry="5.38" fill="#f9b499"/>
  </g>
</svg>